<mxfile host="app.diagrams.net" modified="2023-07-20T11:27:06.371Z" agent="Mozilla/5.0 (Windows NT 10.0; Win64; x64; rv:109.0) Gecko/20100101 Firefox/115.0" etag="uJQt-wrfnY5Y0-WJJ00D" version="21.5.2" type="github" pages="2">
  <diagram name="Methodology" id="t-_hDB9_bV7U9jZggCBl">
    <mxGraphModel dx="1313" dy="1425" grid="1" gridSize="10" guides="1" tooltips="1" connect="1" arrows="1" fold="1" page="1" pageScale="1" pageWidth="827" pageHeight="1169" math="0" shadow="0">
      <root>
        <mxCell id="0" />
        <mxCell id="1" parent="0" />
        <mxCell id="yNCobiBItM3J3ok3ksJP-16" value="" style="rounded=1;whiteSpace=wrap;html=1;" parent="1" vertex="1">
          <mxGeometry x="2400" y="1470" width="799" height="170" as="geometry" />
        </mxCell>
        <mxCell id="TOSCLhitm1Dqb9ZpTsh4-42" value="" style="rounded=1;whiteSpace=wrap;html=1;" parent="1" vertex="1">
          <mxGeometry x="1280" y="910" width="960" height="690" as="geometry" />
        </mxCell>
        <mxCell id="M2tUuZAeyHYkhMsrpUYP-2" value="" style="edgeStyle=orthogonalEdgeStyle;rounded=0;orthogonalLoop=1;jettySize=auto;html=1;strokeWidth=3;" parent="1" source="SHqvhm3qR2kiJbIXEdHi-19" target="BiN6ibbszM4T-fpxPeLF-1" edge="1">
          <mxGeometry relative="1" as="geometry" />
        </mxCell>
        <mxCell id="SHqvhm3qR2kiJbIXEdHi-19" value="Dividing database by hospital" style="rounded=1;whiteSpace=wrap;html=1;fontSize=16;fillColor=#d5e8d4;strokeColor=#82b366;" parent="1" vertex="1">
          <mxGeometry x="360" y="1200" width="160" height="80" as="geometry" />
        </mxCell>
        <mxCell id="M2tUuZAeyHYkhMsrpUYP-3" style="edgeStyle=orthogonalEdgeStyle;rounded=0;orthogonalLoop=1;jettySize=auto;html=1;strokeWidth=3;" parent="1" source="SHqvhm3qR2kiJbIXEdHi-29" target="BiN6ibbszM4T-fpxPeLF-2" edge="1">
          <mxGeometry relative="1" as="geometry" />
        </mxCell>
        <mxCell id="SHqvhm3qR2kiJbIXEdHi-29" value="Unified database" style="rounded=1;whiteSpace=wrap;html=1;fontSize=16;fillColor=#d5e8d4;strokeColor=#82b366;" parent="1" vertex="1">
          <mxGeometry x="600" y="1200" width="160.11" height="80" as="geometry" />
        </mxCell>
        <mxCell id="M2tUuZAeyHYkhMsrpUYP-7" style="edgeStyle=orthogonalEdgeStyle;rounded=0;orthogonalLoop=1;jettySize=auto;html=1;strokeWidth=3;entryX=0.5;entryY=0;entryDx=0;entryDy=0;" parent="1" source="SHqvhm3qR2kiJbIXEdHi-35" target="SHqvhm3qR2kiJbIXEdHi-60" edge="1">
          <mxGeometry relative="1" as="geometry">
            <mxPoint x="459.94000000000005" y="1600" as="targetPoint" />
          </mxGeometry>
        </mxCell>
        <mxCell id="SHqvhm3qR2kiJbIXEdHi-35" value="Removing outliers for each drug" style="rounded=1;whiteSpace=wrap;html=1;fontSize=16;fillColor=#fff2cc;strokeColor=#d6b656;" parent="1" vertex="1">
          <mxGeometry x="360" y="1438.41" width="160" height="80" as="geometry" />
        </mxCell>
        <mxCell id="M2tUuZAeyHYkhMsrpUYP-6" style="edgeStyle=orthogonalEdgeStyle;rounded=0;orthogonalLoop=1;jettySize=auto;html=1;strokeWidth=3;" parent="1" source="SHqvhm3qR2kiJbIXEdHi-38" edge="1">
          <mxGeometry relative="1" as="geometry">
            <mxPoint x="679.94" y="1600" as="targetPoint" />
          </mxGeometry>
        </mxCell>
        <mxCell id="SHqvhm3qR2kiJbIXEdHi-38" value="Removing outliers for each drug" style="rounded=1;whiteSpace=wrap;html=1;fontSize=16;fillColor=#fff2cc;strokeColor=#d6b656;" parent="1" vertex="1">
          <mxGeometry x="600" y="1440" width="160" height="80" as="geometry" />
        </mxCell>
        <mxCell id="SHqvhm3qR2kiJbIXEdHi-43" style="edgeStyle=orthogonalEdgeStyle;rounded=0;orthogonalLoop=1;jettySize=auto;html=1;strokeWidth=3;" parent="1" source="SHqvhm3qR2kiJbIXEdHi-41" target="SHqvhm3qR2kiJbIXEdHi-19" edge="1">
          <mxGeometry relative="1" as="geometry" />
        </mxCell>
        <mxCell id="SHqvhm3qR2kiJbIXEdHi-44" style="edgeStyle=orthogonalEdgeStyle;rounded=0;orthogonalLoop=1;jettySize=auto;html=1;entryX=0.5;entryY=0;entryDx=0;entryDy=0;strokeWidth=3;" parent="1" source="SHqvhm3qR2kiJbIXEdHi-41" target="SHqvhm3qR2kiJbIXEdHi-29" edge="1">
          <mxGeometry relative="1" as="geometry" />
        </mxCell>
        <mxCell id="SHqvhm3qR2kiJbIXEdHi-41" value="Data inconsistance handling" style="rounded=1;whiteSpace=wrap;html=1;fontSize=16;fillColor=#d5e8d4;strokeColor=#82b366;" parent="1" vertex="1">
          <mxGeometry x="480" y="1040" width="159.94" height="80" as="geometry" />
        </mxCell>
        <mxCell id="BiN6ibbszM4T-fpxPeLF-28" style="edgeStyle=orthogonalEdgeStyle;rounded=0;orthogonalLoop=1;jettySize=auto;html=1;strokeWidth=3;" parent="1" source="SHqvhm3qR2kiJbIXEdHi-45" target="BiN6ibbszM4T-fpxPeLF-24" edge="1">
          <mxGeometry relative="1" as="geometry" />
        </mxCell>
        <mxCell id="SHqvhm3qR2kiJbIXEdHi-45" value="Transform categorical features" style="rounded=1;whiteSpace=wrap;html=1;fontSize=16;fillColor=#fff2cc;strokeColor=#d6b656;" parent="1" vertex="1">
          <mxGeometry x="389.94" y="1720" width="140" height="80" as="geometry" />
        </mxCell>
        <mxCell id="BiN6ibbszM4T-fpxPeLF-30" style="edgeStyle=orthogonalEdgeStyle;rounded=0;orthogonalLoop=1;jettySize=auto;html=1;entryX=0.5;entryY=0;entryDx=0;entryDy=0;strokeWidth=3;" parent="1" source="SHqvhm3qR2kiJbIXEdHi-48" target="BiN6ibbszM4T-fpxPeLF-26" edge="1">
          <mxGeometry relative="1" as="geometry" />
        </mxCell>
        <mxCell id="SHqvhm3qR2kiJbIXEdHi-48" value="Transform categorical features" style="rounded=1;whiteSpace=wrap;html=1;fontSize=16;fillColor=#fff2cc;strokeColor=#d6b656;" parent="1" vertex="1">
          <mxGeometry x="609.94" y="1720" width="140" height="80" as="geometry" />
        </mxCell>
        <mxCell id="M2tUuZAeyHYkhMsrpUYP-8" style="edgeStyle=orthogonalEdgeStyle;rounded=0;orthogonalLoop=1;jettySize=auto;html=1;strokeWidth=3;" parent="1" target="BiN6ibbszM4T-fpxPeLF-4" edge="1">
          <mxGeometry relative="1" as="geometry">
            <mxPoint x="459.94000000000005" y="1680" as="sourcePoint" />
          </mxGeometry>
        </mxCell>
        <mxCell id="M2tUuZAeyHYkhMsrpUYP-9" style="edgeStyle=orthogonalEdgeStyle;rounded=0;orthogonalLoop=1;jettySize=auto;html=1;strokeWidth=3;" parent="1" target="BiN6ibbszM4T-fpxPeLF-5" edge="1">
          <mxGeometry relative="1" as="geometry">
            <mxPoint x="679.94" y="1680" as="sourcePoint" />
          </mxGeometry>
        </mxCell>
        <mxCell id="CRWFsu0d3f3VjsncQ6_p-85" style="edgeStyle=orthogonalEdgeStyle;rounded=0;orthogonalLoop=1;jettySize=auto;html=1;entryX=0.5;entryY=0;entryDx=0;entryDy=0;" edge="1" parent="1" source="SHqvhm3qR2kiJbIXEdHi-60" target="SHqvhm3qR2kiJbIXEdHi-45">
          <mxGeometry relative="1" as="geometry" />
        </mxCell>
        <mxCell id="SHqvhm3qR2kiJbIXEdHi-60" value="Aggregate data by drug, hospital, year and month" style="rounded=1;whiteSpace=wrap;html=1;fontSize=16;fillColor=#fff2cc;strokeColor=#d6b656;" parent="1" vertex="1">
          <mxGeometry x="389.94" y="1600" width="140" height="80" as="geometry" />
        </mxCell>
        <mxCell id="CRWFsu0d3f3VjsncQ6_p-87" style="edgeStyle=orthogonalEdgeStyle;rounded=0;orthogonalLoop=1;jettySize=auto;html=1;" edge="1" parent="1" source="SHqvhm3qR2kiJbIXEdHi-65" target="SHqvhm3qR2kiJbIXEdHi-48">
          <mxGeometry relative="1" as="geometry" />
        </mxCell>
        <mxCell id="SHqvhm3qR2kiJbIXEdHi-65" value="Aggregate data by drug, year and month" style="rounded=1;whiteSpace=wrap;html=1;fontSize=16;fillColor=#fff2cc;strokeColor=#d6b656;" parent="1" vertex="1">
          <mxGeometry x="609.94" y="1600" width="140" height="80" as="geometry" />
        </mxCell>
        <mxCell id="TvscWtppMxDBSj-NU7g7-3" style="edgeStyle=orthogonalEdgeStyle;rounded=0;orthogonalLoop=1;jettySize=auto;html=1;strokeWidth=3;" parent="1" source="SHqvhm3qR2kiJbIXEdHi-71" target="bCkLxKvPBURnQj97gKr4-6" edge="1">
          <mxGeometry relative="1" as="geometry" />
        </mxCell>
        <mxCell id="SHqvhm3qR2kiJbIXEdHi-71" value="Normalize data" style="rounded=1;whiteSpace=wrap;html=1;fontSize=16;fillColor=#e1d5e7;strokeColor=#9673a6;" parent="1" vertex="1">
          <mxGeometry x="169.88" y="2040" width="140" height="80" as="geometry" />
        </mxCell>
        <mxCell id="SHqvhm3qR2kiJbIXEdHi-93" style="edgeStyle=orthogonalEdgeStyle;rounded=0;orthogonalLoop=1;jettySize=auto;html=1;strokeWidth=3;" parent="1" source="SHqvhm3qR2kiJbIXEdHi-88" target="SHqvhm3qR2kiJbIXEdHi-92" edge="1">
          <mxGeometry relative="1" as="geometry" />
        </mxCell>
        <mxCell id="SHqvhm3qR2kiJbIXEdHi-88" value="Clustering model with different cluster composition" style="rounded=1;whiteSpace=wrap;html=1;fontSize=16;fillColor=#f5f5f5;strokeColor=#666666;fontColor=#333333;" parent="1" vertex="1">
          <mxGeometry x="400.11" y="2760" width="140" height="80" as="geometry" />
        </mxCell>
        <mxCell id="SHqvhm3qR2kiJbIXEdHi-98" style="edgeStyle=orthogonalEdgeStyle;rounded=0;orthogonalLoop=1;jettySize=auto;html=1;entryX=0.5;entryY=0;entryDx=0;entryDy=0;strokeWidth=3;" parent="1" source="SHqvhm3qR2kiJbIXEdHi-89" target="SHqvhm3qR2kiJbIXEdHi-97" edge="1">
          <mxGeometry relative="1" as="geometry" />
        </mxCell>
        <mxCell id="SHqvhm3qR2kiJbIXEdHi-89" value="Clustering model with different cluster composition" style="rounded=1;whiteSpace=wrap;html=1;fontSize=16;fillColor=#f5f5f5;strokeColor=#666666;fontColor=#333333;" parent="1" vertex="1">
          <mxGeometry x="620.11" y="2760" width="140" height="80" as="geometry" />
        </mxCell>
        <mxCell id="SHqvhm3qR2kiJbIXEdHi-102" style="edgeStyle=orthogonalEdgeStyle;rounded=0;orthogonalLoop=1;jettySize=auto;html=1;entryX=0.5;entryY=0;entryDx=0;entryDy=0;strokeWidth=3;" parent="1" source="SHqvhm3qR2kiJbIXEdHi-92" target="SHqvhm3qR2kiJbIXEdHi-99" edge="1">
          <mxGeometry relative="1" as="geometry" />
        </mxCell>
        <mxCell id="SHqvhm3qR2kiJbIXEdHi-92" value="Model evaluation" style="rounded=1;whiteSpace=wrap;html=1;fontSize=16;fillColor=#f5f5f5;strokeColor=#666666;fontColor=#333333;" parent="1" vertex="1">
          <mxGeometry x="400.11" y="2880" width="140" height="80" as="geometry" />
        </mxCell>
        <mxCell id="SHqvhm3qR2kiJbIXEdHi-101" style="edgeStyle=orthogonalEdgeStyle;rounded=0;orthogonalLoop=1;jettySize=auto;html=1;strokeWidth=3;" parent="1" source="SHqvhm3qR2kiJbIXEdHi-97" target="SHqvhm3qR2kiJbIXEdHi-100" edge="1">
          <mxGeometry relative="1" as="geometry" />
        </mxCell>
        <mxCell id="SHqvhm3qR2kiJbIXEdHi-97" value="Model evaluation" style="rounded=1;whiteSpace=wrap;html=1;fontSize=16;fillColor=#f5f5f5;strokeColor=#666666;fontColor=#333333;" parent="1" vertex="1">
          <mxGeometry x="620.11" y="2880" width="140" height="80" as="geometry" />
        </mxCell>
        <mxCell id="SHqvhm3qR2kiJbIXEdHi-103" value="No" style="edgeStyle=orthogonalEdgeStyle;rounded=0;orthogonalLoop=1;jettySize=auto;html=1;entryX=0;entryY=0.5;entryDx=0;entryDy=0;strokeWidth=3;" parent="1" source="SHqvhm3qR2kiJbIXEdHi-99" target="SHqvhm3qR2kiJbIXEdHi-88" edge="1">
          <mxGeometry relative="1" as="geometry">
            <Array as="points">
              <mxPoint x="360.11" y="3040" />
              <mxPoint x="360.11" y="2800" />
            </Array>
          </mxGeometry>
        </mxCell>
        <mxCell id="SHqvhm3qR2kiJbIXEdHi-106" value="Yes" style="edgeStyle=orthogonalEdgeStyle;rounded=0;orthogonalLoop=1;jettySize=auto;html=1;entryX=0.5;entryY=0;entryDx=0;entryDy=0;strokeWidth=3;" parent="1" source="SHqvhm3qR2kiJbIXEdHi-99" target="SHqvhm3qR2kiJbIXEdHi-105" edge="1">
          <mxGeometry relative="1" as="geometry" />
        </mxCell>
        <mxCell id="SHqvhm3qR2kiJbIXEdHi-99" value="Fit" style="rhombus;whiteSpace=wrap;html=1;" parent="1" vertex="1">
          <mxGeometry x="430.11" y="3000" width="80" height="80" as="geometry" />
        </mxCell>
        <mxCell id="SHqvhm3qR2kiJbIXEdHi-108" value="Yes" style="edgeStyle=orthogonalEdgeStyle;rounded=0;orthogonalLoop=1;jettySize=auto;html=1;strokeWidth=3;" parent="1" source="SHqvhm3qR2kiJbIXEdHi-100" target="SHqvhm3qR2kiJbIXEdHi-107" edge="1">
          <mxGeometry relative="1" as="geometry" />
        </mxCell>
        <mxCell id="M2tUuZAeyHYkhMsrpUYP-37" style="edgeStyle=orthogonalEdgeStyle;rounded=0;orthogonalLoop=1;jettySize=auto;html=1;entryX=0;entryY=0.5;entryDx=0;entryDy=0;strokeWidth=3;" parent="1" source="SHqvhm3qR2kiJbIXEdHi-100" target="SHqvhm3qR2kiJbIXEdHi-89" edge="1">
          <mxGeometry relative="1" as="geometry">
            <Array as="points">
              <mxPoint x="580.11" y="3040" />
              <mxPoint x="580.11" y="2800" />
            </Array>
          </mxGeometry>
        </mxCell>
        <mxCell id="M2tUuZAeyHYkhMsrpUYP-38" value="No" style="edgeLabel;html=1;align=center;verticalAlign=middle;resizable=0;points=[];" parent="M2tUuZAeyHYkhMsrpUYP-37" vertex="1" connectable="0">
          <mxGeometry x="-0.0373" y="2" relative="1" as="geometry">
            <mxPoint x="2" y="-12" as="offset" />
          </mxGeometry>
        </mxCell>
        <mxCell id="SHqvhm3qR2kiJbIXEdHi-100" value="Fit" style="rhombus;whiteSpace=wrap;html=1;" parent="1" vertex="1">
          <mxGeometry x="650.11" y="3000" width="80" height="80" as="geometry" />
        </mxCell>
        <mxCell id="SHqvhm3qR2kiJbIXEdHi-110" style="edgeStyle=orthogonalEdgeStyle;rounded=0;orthogonalLoop=1;jettySize=auto;html=1;entryX=0.5;entryY=0;entryDx=0;entryDy=0;strokeWidth=3;" parent="1" source="SHqvhm3qR2kiJbIXEdHi-105" target="SHqvhm3qR2kiJbIXEdHi-109" edge="1">
          <mxGeometry relative="1" as="geometry" />
        </mxCell>
        <mxCell id="SHqvhm3qR2kiJbIXEdHi-105" value="New database composition based on clusters" style="rounded=1;whiteSpace=wrap;html=1;fontSize=16;fillColor=#b1ddf0;strokeColor=#10739e;" parent="1" vertex="1">
          <mxGeometry x="400.11" y="3120" width="140" height="80" as="geometry" />
        </mxCell>
        <mxCell id="SHqvhm3qR2kiJbIXEdHi-112" style="edgeStyle=orthogonalEdgeStyle;rounded=0;orthogonalLoop=1;jettySize=auto;html=1;strokeWidth=3;" parent="1" source="SHqvhm3qR2kiJbIXEdHi-107" target="SHqvhm3qR2kiJbIXEdHi-111" edge="1">
          <mxGeometry relative="1" as="geometry" />
        </mxCell>
        <mxCell id="SHqvhm3qR2kiJbIXEdHi-107" value="New database composition based on clusters" style="rounded=1;whiteSpace=wrap;html=1;fontSize=16;fillColor=#b1ddf0;strokeColor=#10739e;" parent="1" vertex="1">
          <mxGeometry x="620.11" y="3120" width="140" height="80" as="geometry" />
        </mxCell>
        <mxCell id="CRWFsu0d3f3VjsncQ6_p-90" style="edgeStyle=orthogonalEdgeStyle;rounded=0;orthogonalLoop=1;jettySize=auto;html=1;strokeWidth=3;" edge="1" parent="1" source="SHqvhm3qR2kiJbIXEdHi-109" target="SHqvhm3qR2kiJbIXEdHi-113">
          <mxGeometry relative="1" as="geometry">
            <Array as="points">
              <mxPoint x="470" y="3370" />
              <mxPoint x="360" y="3370" />
            </Array>
          </mxGeometry>
        </mxCell>
        <mxCell id="SHqvhm3qR2kiJbIXEdHi-109" value="Building forecasting models based on clusters" style="rounded=1;whiteSpace=wrap;html=1;fontSize=16;fillColor=#b1ddf0;strokeColor=#10739e;" parent="1" vertex="1">
          <mxGeometry x="400.11" y="3240" width="140" height="80" as="geometry" />
        </mxCell>
        <mxCell id="CRWFsu0d3f3VjsncQ6_p-89" style="edgeStyle=orthogonalEdgeStyle;rounded=0;orthogonalLoop=1;jettySize=auto;html=1;strokeWidth=3;" edge="1" parent="1" source="SHqvhm3qR2kiJbIXEdHi-111" target="SHqvhm3qR2kiJbIXEdHi-113">
          <mxGeometry relative="1" as="geometry">
            <Array as="points">
              <mxPoint x="690" y="3370" />
              <mxPoint x="360" y="3370" />
            </Array>
          </mxGeometry>
        </mxCell>
        <mxCell id="SHqvhm3qR2kiJbIXEdHi-111" value="Building forecasting models based on clusters" style="rounded=1;whiteSpace=wrap;html=1;fontSize=16;fillColor=#b1ddf0;strokeColor=#10739e;" parent="1" vertex="1">
          <mxGeometry x="620.11" y="3240" width="140" height="80" as="geometry" />
        </mxCell>
        <mxCell id="SHqvhm3qR2kiJbIXEdHi-113" value="Forecast demand" style="rounded=1;whiteSpace=wrap;html=1;fontSize=16;fillColor=#b1ddf0;strokeColor=#10739e;" parent="1" vertex="1">
          <mxGeometry x="180.11" y="3410" width="360" height="80" as="geometry" />
        </mxCell>
        <mxCell id="SHqvhm3qR2kiJbIXEdHi-118" value="1 - Database formatting" style="text;html=1;strokeColor=none;fillColor=none;align=center;verticalAlign=middle;whiteSpace=wrap;rounded=0;fontSize=14;fontStyle=1" parent="1" vertex="1">
          <mxGeometry x="949.94" y="1200" width="120" height="40" as="geometry" />
        </mxCell>
        <mxCell id="SHqvhm3qR2kiJbIXEdHi-122" value="" style="shape=curlyBracket;whiteSpace=wrap;html=1;rounded=1;flipH=1;labelPosition=right;verticalLabelPosition=middle;align=left;verticalAlign=middle;" parent="1" vertex="1">
          <mxGeometry x="839.94" y="1400" width="40" height="720" as="geometry" />
        </mxCell>
        <mxCell id="SHqvhm3qR2kiJbIXEdHi-123" value="2 - Data treatment" style="text;html=1;strokeColor=none;fillColor=none;align=center;verticalAlign=middle;whiteSpace=wrap;rounded=0;fontSize=14;fontStyle=1" parent="1" vertex="1">
          <mxGeometry x="959.94" y="1740" width="120" height="40" as="geometry" />
        </mxCell>
        <mxCell id="SHqvhm3qR2kiJbIXEdHi-124" style="edgeStyle=orthogonalEdgeStyle;rounded=0;orthogonalLoop=1;jettySize=auto;html=1;exitX=0.1;exitY=0.5;exitDx=0;exitDy=0;exitPerimeter=0;entryX=0;entryY=0.5;entryDx=0;entryDy=0;" parent="1" source="SHqvhm3qR2kiJbIXEdHi-122" target="SHqvhm3qR2kiJbIXEdHi-123" edge="1">
          <mxGeometry relative="1" as="geometry">
            <mxPoint x="865.8799999999997" y="1750" as="sourcePoint" />
            <mxPoint x="949.94" y="1760" as="targetPoint" />
          </mxGeometry>
        </mxCell>
        <mxCell id="SHqvhm3qR2kiJbIXEdHi-125" value="" style="shape=curlyBracket;whiteSpace=wrap;html=1;rounded=1;flipH=1;labelPosition=right;verticalLabelPosition=middle;align=left;verticalAlign=middle;" parent="1" vertex="1">
          <mxGeometry x="839.94" y="1150" width="40" height="130" as="geometry" />
        </mxCell>
        <mxCell id="SHqvhm3qR2kiJbIXEdHi-126" style="edgeStyle=orthogonalEdgeStyle;rounded=0;orthogonalLoop=1;jettySize=auto;html=1;exitX=0.1;exitY=0.5;exitDx=0;exitDy=0;exitPerimeter=0;" parent="1" source="SHqvhm3qR2kiJbIXEdHi-125" target="SHqvhm3qR2kiJbIXEdHi-118" edge="1">
          <mxGeometry relative="1" as="geometry">
            <mxPoint x="875.94" y="1590" as="sourcePoint" />
            <mxPoint x="959.94" y="1590" as="targetPoint" />
          </mxGeometry>
        </mxCell>
        <mxCell id="SHqvhm3qR2kiJbIXEdHi-127" value="" style="shape=curlyBracket;whiteSpace=wrap;html=1;rounded=1;flipH=1;labelPosition=right;verticalLabelPosition=middle;align=left;verticalAlign=middle;" parent="1" vertex="1">
          <mxGeometry x="839.94" y="2680" width="40" height="360" as="geometry" />
        </mxCell>
        <mxCell id="SHqvhm3qR2kiJbIXEdHi-129" value="4 - Clustering" style="text;html=1;strokeColor=none;fillColor=none;align=center;verticalAlign=middle;whiteSpace=wrap;rounded=0;fontSize=14;fontStyle=1" parent="1" vertex="1">
          <mxGeometry x="959.94" y="2840" width="120" height="40" as="geometry" />
        </mxCell>
        <mxCell id="SHqvhm3qR2kiJbIXEdHi-130" style="edgeStyle=orthogonalEdgeStyle;rounded=0;orthogonalLoop=1;jettySize=auto;html=1;exitX=0.1;exitY=0.5;exitDx=0;exitDy=0;exitPerimeter=0;" parent="1" source="SHqvhm3qR2kiJbIXEdHi-127" target="SHqvhm3qR2kiJbIXEdHi-129" edge="1">
          <mxGeometry relative="1" as="geometry">
            <mxPoint x="885.94" y="2270" as="sourcePoint" />
            <mxPoint x="969.94" y="2270" as="targetPoint" />
          </mxGeometry>
        </mxCell>
        <mxCell id="SHqvhm3qR2kiJbIXEdHi-131" value="" style="shape=curlyBracket;whiteSpace=wrap;html=1;rounded=1;flipH=1;labelPosition=right;verticalLabelPosition=middle;align=left;verticalAlign=middle;" parent="1" vertex="1">
          <mxGeometry x="839.94" y="3160" width="40" height="280" as="geometry" />
        </mxCell>
        <mxCell id="SHqvhm3qR2kiJbIXEdHi-132" value="5 - Forecasting" style="text;html=1;strokeColor=none;fillColor=none;align=center;verticalAlign=middle;whiteSpace=wrap;rounded=0;fontSize=14;fontStyle=1" parent="1" vertex="1">
          <mxGeometry x="959.94" y="3280" width="120" height="40" as="geometry" />
        </mxCell>
        <mxCell id="SHqvhm3qR2kiJbIXEdHi-133" style="edgeStyle=orthogonalEdgeStyle;rounded=0;orthogonalLoop=1;jettySize=auto;html=1;exitX=0.1;exitY=0.5;exitDx=0;exitDy=0;exitPerimeter=0;" parent="1" source="SHqvhm3qR2kiJbIXEdHi-131" target="SHqvhm3qR2kiJbIXEdHi-132" edge="1">
          <mxGeometry relative="1" as="geometry">
            <mxPoint x="885.94" y="2810" as="sourcePoint" />
            <mxPoint x="969.94" y="2810" as="targetPoint" />
          </mxGeometry>
        </mxCell>
        <mxCell id="SHqvhm3qR2kiJbIXEdHi-140" value="DATA Treatment, clustering and forecasting phase" style="text;html=1;strokeColor=none;fillColor=none;align=center;verticalAlign=middle;whiteSpace=wrap;rounded=0;strokeWidth=1;fontSize=16;fontStyle=1" parent="1" vertex="1">
          <mxGeometry x="90" y="695.79" width="400" height="48.41" as="geometry" />
        </mxCell>
        <mxCell id="BiN6ibbszM4T-fpxPeLF-27" style="edgeStyle=orthogonalEdgeStyle;rounded=0;orthogonalLoop=1;jettySize=auto;html=1;entryX=0.5;entryY=0;entryDx=0;entryDy=0;strokeWidth=3;" parent="1" source="bCkLxKvPBURnQj97gKr4-1" target="SHqvhm3qR2kiJbIXEdHi-71" edge="1">
          <mxGeometry relative="1" as="geometry" />
        </mxCell>
        <mxCell id="BiN6ibbszM4T-fpxPeLF-32" style="edgeStyle=orthogonalEdgeStyle;rounded=0;orthogonalLoop=1;jettySize=auto;html=1;strokeWidth=3;" parent="1" source="bCkLxKvPBURnQj97gKr4-1" edge="1">
          <mxGeometry relative="1" as="geometry">
            <mxPoint x="470.16666666666697" y="2640" as="targetPoint" />
          </mxGeometry>
        </mxCell>
        <mxCell id="bCkLxKvPBURnQj97gKr4-1" value="Correlation analysis and feature selection" style="rounded=1;whiteSpace=wrap;html=1;fontSize=16;fillColor=#e1d5e7;strokeColor=#9673a6;" parent="1" vertex="1">
          <mxGeometry x="389.94" y="1960" width="140" height="80" as="geometry" />
        </mxCell>
        <mxCell id="BiN6ibbszM4T-fpxPeLF-33" style="edgeStyle=orthogonalEdgeStyle;rounded=0;orthogonalLoop=1;jettySize=auto;html=1;strokeWidth=3;" parent="1" source="bCkLxKvPBURnQj97gKr4-4" edge="1">
          <mxGeometry relative="1" as="geometry">
            <mxPoint x="690.166666666667" y="2640" as="targetPoint" />
          </mxGeometry>
        </mxCell>
        <mxCell id="bCkLxKvPBURnQj97gKr4-4" value="Correlation analysis and feature selection" style="rounded=1;whiteSpace=wrap;html=1;fontSize=16;fillColor=#e1d5e7;strokeColor=#9673a6;" parent="1" vertex="1">
          <mxGeometry x="609.94" y="1960" width="140" height="80" as="geometry" />
        </mxCell>
        <mxCell id="BiN6ibbszM4T-fpxPeLF-22" style="edgeStyle=orthogonalEdgeStyle;rounded=0;orthogonalLoop=1;jettySize=auto;html=1;strokeWidth=3;" parent="1" source="bCkLxKvPBURnQj97gKr4-6" edge="1">
          <mxGeometry relative="1" as="geometry">
            <mxPoint x="250.16666666666697" y="2640" as="targetPoint" />
          </mxGeometry>
        </mxCell>
        <mxCell id="bCkLxKvPBURnQj97gKr4-6" value="Dimensionality reduction" style="rounded=1;whiteSpace=wrap;html=1;fontSize=16;fillColor=#e1d5e7;strokeColor=#9673a6;" parent="1" vertex="1">
          <mxGeometry x="169.88" y="2160" width="140" height="80" as="geometry" />
        </mxCell>
        <mxCell id="bCkLxKvPBURnQj97gKr4-14" value="" style="shape=curlyBracket;whiteSpace=wrap;html=1;rounded=1;flipH=1;labelPosition=right;verticalLabelPosition=middle;align=left;verticalAlign=middle;" parent="1" vertex="1">
          <mxGeometry x="839.94" y="2240" width="40" height="320" as="geometry" />
        </mxCell>
        <mxCell id="bCkLxKvPBURnQj97gKr4-15" value="3 - Feature manipulation and comprehension" style="text;html=1;strokeColor=none;fillColor=none;align=center;verticalAlign=middle;whiteSpace=wrap;rounded=0;fontSize=14;fontStyle=1" parent="1" vertex="1">
          <mxGeometry x="959.94" y="2380" width="120" height="40" as="geometry" />
        </mxCell>
        <mxCell id="bCkLxKvPBURnQj97gKr4-16" style="edgeStyle=orthogonalEdgeStyle;rounded=0;orthogonalLoop=1;jettySize=auto;html=1;exitX=0.1;exitY=0.5;exitDx=0;exitDy=0;exitPerimeter=0;entryX=0;entryY=0.5;entryDx=0;entryDy=0;" parent="1" source="bCkLxKvPBURnQj97gKr4-14" target="bCkLxKvPBURnQj97gKr4-15" edge="1">
          <mxGeometry relative="1" as="geometry">
            <mxPoint x="875.9399999999996" y="2360" as="sourcePoint" />
            <mxPoint x="929.94" y="2060" as="targetPoint" />
          </mxGeometry>
        </mxCell>
        <mxCell id="TOSCLhitm1Dqb9ZpTsh4-38" style="edgeStyle=orthogonalEdgeStyle;rounded=0;orthogonalLoop=1;jettySize=auto;html=1;entryX=0.5;entryY=0;entryDx=0;entryDy=0;strokeWidth=3;" parent="1" source="TOSCLhitm1Dqb9ZpTsh4-1" target="TOSCLhitm1Dqb9ZpTsh4-2" edge="1">
          <mxGeometry relative="1" as="geometry" />
        </mxCell>
        <mxCell id="TOSCLhitm1Dqb9ZpTsh4-1" value="Database formatting" style="rounded=1;whiteSpace=wrap;html=1;fontSize=16;fillColor=#d5e8d4;strokeColor=#82b366;" parent="1" vertex="1">
          <mxGeometry x="1520" y="1000" width="360" height="80" as="geometry" />
        </mxCell>
        <mxCell id="TOSCLhitm1Dqb9ZpTsh4-39" style="edgeStyle=orthogonalEdgeStyle;rounded=0;orthogonalLoop=1;jettySize=auto;html=1;strokeWidth=3;" parent="1" source="TOSCLhitm1Dqb9ZpTsh4-2" target="TOSCLhitm1Dqb9ZpTsh4-3" edge="1">
          <mxGeometry relative="1" as="geometry" />
        </mxCell>
        <mxCell id="TOSCLhitm1Dqb9ZpTsh4-2" value="Data treatment" style="rounded=1;whiteSpace=wrap;html=1;fontSize=16;fillColor=#fff2cc;strokeColor=#d6b656;" parent="1" vertex="1">
          <mxGeometry x="1520" y="1120" width="360" height="80" as="geometry" />
        </mxCell>
        <mxCell id="TOSCLhitm1Dqb9ZpTsh4-40" style="edgeStyle=orthogonalEdgeStyle;rounded=0;orthogonalLoop=1;jettySize=auto;html=1;strokeWidth=3;" parent="1" source="TOSCLhitm1Dqb9ZpTsh4-3" target="TOSCLhitm1Dqb9ZpTsh4-4" edge="1">
          <mxGeometry relative="1" as="geometry" />
        </mxCell>
        <mxCell id="TOSCLhitm1Dqb9ZpTsh4-3" value="Feature manipulation and comprehension" style="rounded=1;whiteSpace=wrap;html=1;fontSize=16;fillColor=#e1d5e7;strokeColor=#9673a6;" parent="1" vertex="1">
          <mxGeometry x="1520" y="1240" width="360" height="80" as="geometry" />
        </mxCell>
        <mxCell id="TOSCLhitm1Dqb9ZpTsh4-41" value="" style="edgeStyle=orthogonalEdgeStyle;rounded=0;orthogonalLoop=1;jettySize=auto;html=1;strokeWidth=3;" parent="1" source="TOSCLhitm1Dqb9ZpTsh4-4" target="TOSCLhitm1Dqb9ZpTsh4-5" edge="1">
          <mxGeometry relative="1" as="geometry" />
        </mxCell>
        <mxCell id="TOSCLhitm1Dqb9ZpTsh4-4" value="Clustering" style="rounded=1;whiteSpace=wrap;html=1;fontSize=16;fillColor=#f5f5f5;strokeColor=#666666;fontColor=#333333;" parent="1" vertex="1">
          <mxGeometry x="1520" y="1360" width="360" height="80" as="geometry" />
        </mxCell>
        <mxCell id="yNCobiBItM3J3ok3ksJP-18" style="edgeStyle=orthogonalEdgeStyle;rounded=0;orthogonalLoop=1;jettySize=auto;html=1;entryX=0;entryY=0.5;entryDx=0;entryDy=0;strokeWidth=3;dashed=1;dashPattern=1 1;" parent="1" source="TOSCLhitm1Dqb9ZpTsh4-5" target="yNCobiBItM3J3ok3ksJP-16" edge="1">
          <mxGeometry relative="1" as="geometry">
            <Array as="points">
              <mxPoint x="2370" y="1555" />
              <mxPoint x="2370" y="1555" />
            </Array>
          </mxGeometry>
        </mxCell>
        <mxCell id="TOSCLhitm1Dqb9ZpTsh4-5" value="Forecasting" style="rounded=1;whiteSpace=wrap;html=1;fontSize=16;fillColor=#dae8fc;strokeColor=#6c8ebf;" parent="1" vertex="1">
          <mxGeometry x="1520" y="1480" width="360" height="80" as="geometry" />
        </mxCell>
        <mxCell id="TOSCLhitm1Dqb9ZpTsh4-6" value="" style="rounded=1;whiteSpace=wrap;html=1;" parent="1" vertex="1">
          <mxGeometry x="1280" y="40" width="960" height="860" as="geometry" />
        </mxCell>
        <mxCell id="TOSCLhitm1Dqb9ZpTsh4-7" value="DATA Extractions" style="text;html=1;strokeColor=none;fillColor=none;align=center;verticalAlign=middle;whiteSpace=wrap;rounded=0;strokeWidth=1;fontSize=14;fontStyle=1" parent="1" vertex="1">
          <mxGeometry x="1380" y="160" width="80" height="120" as="geometry" />
        </mxCell>
        <mxCell id="TOSCLhitm1Dqb9ZpTsh4-8" style="edgeStyle=orthogonalEdgeStyle;rounded=0;orthogonalLoop=1;jettySize=auto;html=1;jumpSize=6;strokeWidth=3;" parent="1" source="TOSCLhitm1Dqb9ZpTsh4-11" target="TOSCLhitm1Dqb9ZpTsh4-21" edge="1">
          <mxGeometry relative="1" as="geometry">
            <Array as="points">
              <mxPoint x="1820" y="350" />
              <mxPoint x="1820" y="350" />
            </Array>
          </mxGeometry>
        </mxCell>
        <mxCell id="TOSCLhitm1Dqb9ZpTsh4-9" style="edgeStyle=orthogonalEdgeStyle;rounded=0;orthogonalLoop=1;jettySize=auto;html=1;fontSize=11;strokeWidth=3;" parent="1" source="TOSCLhitm1Dqb9ZpTsh4-11" target="TOSCLhitm1Dqb9ZpTsh4-30" edge="1">
          <mxGeometry relative="1" as="geometry" />
        </mxCell>
        <mxCell id="TOSCLhitm1Dqb9ZpTsh4-10" style="edgeStyle=orthogonalEdgeStyle;rounded=0;orthogonalLoop=1;jettySize=auto;html=1;strokeWidth=3;" parent="1" source="TOSCLhitm1Dqb9ZpTsh4-11" target="TOSCLhitm1Dqb9ZpTsh4-19" edge="1">
          <mxGeometry relative="1" as="geometry">
            <Array as="points">
              <mxPoint x="1580" y="310" />
              <mxPoint x="1580" y="310" />
            </Array>
          </mxGeometry>
        </mxCell>
        <mxCell id="TOSCLhitm1Dqb9ZpTsh4-11" value="" style="rounded=1;whiteSpace=wrap;html=1;fillColor=#dae8fc;strokeColor=#6c8ebf;" parent="1" vertex="1">
          <mxGeometry x="1500" y="160" width="400" height="140" as="geometry" />
        </mxCell>
        <mxCell id="TOSCLhitm1Dqb9ZpTsh4-12" value="" style="image;aspect=fixed;perimeter=ellipsePerimeter;html=1;align=center;shadow=0;dashed=0;spacingTop=3;image=img/lib/active_directory/databases.svg;" parent="1" vertex="1">
          <mxGeometry x="1540" y="200" width="80" height="78.41" as="geometry" />
        </mxCell>
        <mxCell id="TOSCLhitm1Dqb9ZpTsh4-13" value="" style="image;aspect=fixed;perimeter=ellipsePerimeter;html=1;align=center;shadow=0;dashed=0;spacingTop=3;image=img/lib/active_directory/databases.svg;" parent="1" vertex="1">
          <mxGeometry x="1660" y="201.58999999999997" width="80" height="78.41" as="geometry" />
        </mxCell>
        <mxCell id="TOSCLhitm1Dqb9ZpTsh4-14" value="" style="image;aspect=fixed;perimeter=ellipsePerimeter;html=1;align=center;shadow=0;dashed=0;spacingTop=3;image=img/lib/active_directory/databases.svg;" parent="1" vertex="1">
          <mxGeometry x="1780" y="201.58999999999997" width="80" height="78.41" as="geometry" />
        </mxCell>
        <mxCell id="TOSCLhitm1Dqb9ZpTsh4-15" value="&lt;i&gt;Products database&lt;/i&gt;" style="text;html=1;strokeColor=none;fillColor=none;align=center;verticalAlign=middle;whiteSpace=wrap;rounded=0;" parent="1" vertex="1">
          <mxGeometry x="1540" y="140" width="80" height="80" as="geometry" />
        </mxCell>
        <mxCell id="TOSCLhitm1Dqb9ZpTsh4-16" value="&lt;i&gt;Historical database&lt;/i&gt;" style="text;html=1;strokeColor=none;fillColor=none;align=center;verticalAlign=middle;whiteSpace=wrap;rounded=0;" parent="1" vertex="1">
          <mxGeometry x="1660" y="140" width="80" height="80" as="geometry" />
        </mxCell>
        <mxCell id="TOSCLhitm1Dqb9ZpTsh4-17" value="&lt;i&gt;Medical unit&lt;br&gt;database&lt;br&gt;&lt;/i&gt;" style="text;html=1;strokeColor=none;fillColor=none;align=center;verticalAlign=middle;whiteSpace=wrap;rounded=0;" parent="1" vertex="1">
          <mxGeometry x="1780" y="140" width="80" height="80" as="geometry" />
        </mxCell>
        <mxCell id="TOSCLhitm1Dqb9ZpTsh4-18" style="edgeStyle=orthogonalEdgeStyle;rounded=0;orthogonalLoop=1;jettySize=auto;html=1;entryX=0.5;entryY=0;entryDx=0;entryDy=0;strokeWidth=3;startArrow=none;startFill=0;" parent="1" source="TOSCLhitm1Dqb9ZpTsh4-19" target="TOSCLhitm1Dqb9ZpTsh4-28" edge="1">
          <mxGeometry relative="1" as="geometry" />
        </mxCell>
        <mxCell id="TOSCLhitm1Dqb9ZpTsh4-19" value="Pre-processing on products" style="rounded=1;whiteSpace=wrap;html=1;fillColor=#dae8fc;strokeColor=#6c8ebf;" parent="1" vertex="1">
          <mxGeometry x="1520" y="361" width="120" height="60" as="geometry" />
        </mxCell>
        <mxCell id="TOSCLhitm1Dqb9ZpTsh4-20" style="edgeStyle=orthogonalEdgeStyle;rounded=0;orthogonalLoop=1;jettySize=auto;html=1;strokeWidth=3;" parent="1" source="TOSCLhitm1Dqb9ZpTsh4-21" target="TOSCLhitm1Dqb9ZpTsh4-30" edge="1">
          <mxGeometry relative="1" as="geometry">
            <Array as="points">
              <mxPoint x="1820" y="640" />
              <mxPoint x="1820" y="640" />
            </Array>
          </mxGeometry>
        </mxCell>
        <mxCell id="TOSCLhitm1Dqb9ZpTsh4-21" value="Medical unit or medical department" style="rounded=1;whiteSpace=wrap;html=1;fillColor=#dae8fc;strokeColor=#6c8ebf;" parent="1" vertex="1">
          <mxGeometry x="1760" y="361" width="120" height="60" as="geometry" />
        </mxCell>
        <mxCell id="TOSCLhitm1Dqb9ZpTsh4-22" style="edgeStyle=orthogonalEdgeStyle;rounded=0;orthogonalLoop=1;jettySize=auto;html=1;strokeWidth=3;startArrow=classic;startFill=1;" parent="1" source="TOSCLhitm1Dqb9ZpTsh4-23" target="TOSCLhitm1Dqb9ZpTsh4-19" edge="1">
          <mxGeometry relative="1" as="geometry" />
        </mxCell>
        <mxCell id="TOSCLhitm1Dqb9ZpTsh4-23" value="External drug database" style="rounded=1;whiteSpace=wrap;html=1;fillColor=#dae8fc;strokeColor=#6c8ebf;" parent="1" vertex="1">
          <mxGeometry x="1320" y="361" width="120" height="60" as="geometry" />
        </mxCell>
        <mxCell id="TOSCLhitm1Dqb9ZpTsh4-24" value="Hospital WEB site" style="rounded=1;whiteSpace=wrap;html=1;fillColor=#dae8fc;strokeColor=#6c8ebf;" parent="1" vertex="1">
          <mxGeometry x="1960" y="361" width="120" height="60" as="geometry" />
        </mxCell>
        <mxCell id="TOSCLhitm1Dqb9ZpTsh4-25" value="" style="endArrow=classic;startArrow=classic;html=1;rounded=0;exitX=1;exitY=0.5;exitDx=0;exitDy=0;fontSize=9;startWidth=15;endWidth=15;strokeWidth=3;" parent="1" source="TOSCLhitm1Dqb9ZpTsh4-21" target="TOSCLhitm1Dqb9ZpTsh4-24" edge="1">
          <mxGeometry width="100" height="100" relative="1" as="geometry">
            <mxPoint x="1990" y="341" as="sourcePoint" />
            <mxPoint x="2090" y="241" as="targetPoint" />
          </mxGeometry>
        </mxCell>
        <mxCell id="TOSCLhitm1Dqb9ZpTsh4-26" value="Scraping" style="text;html=1;strokeColor=none;fillColor=none;align=center;verticalAlign=middle;whiteSpace=wrap;rounded=0;" parent="1" vertex="1">
          <mxGeometry x="1890" y="331" width="60" height="30" as="geometry" />
        </mxCell>
        <mxCell id="TOSCLhitm1Dqb9ZpTsh4-27" style="edgeStyle=orthogonalEdgeStyle;rounded=0;orthogonalLoop=1;jettySize=auto;html=1;strokeWidth=3;" parent="1" source="TOSCLhitm1Dqb9ZpTsh4-28" target="TOSCLhitm1Dqb9ZpTsh4-30" edge="1">
          <mxGeometry relative="1" as="geometry">
            <Array as="points">
              <mxPoint x="1580" y="550" />
              <mxPoint x="1580" y="550" />
            </Array>
          </mxGeometry>
        </mxCell>
        <mxCell id="TOSCLhitm1Dqb9ZpTsh4-28" value="Traceable drug database" style="rounded=1;whiteSpace=wrap;html=1;fillColor=#dae8fc;strokeColor=#6c8ebf;" parent="1" vertex="1">
          <mxGeometry x="1520" y="460" width="120" height="60" as="geometry" />
        </mxCell>
        <mxCell id="TOSCLhitm1Dqb9ZpTsh4-29" style="edgeStyle=orthogonalEdgeStyle;rounded=0;orthogonalLoop=1;jettySize=auto;html=1;strokeWidth=3;" parent="1" source="TOSCLhitm1Dqb9ZpTsh4-30" target="TOSCLhitm1Dqb9ZpTsh4-34" edge="1">
          <mxGeometry relative="1" as="geometry" />
        </mxCell>
        <mxCell id="TOSCLhitm1Dqb9ZpTsh4-30" value="Cross-reference 1" style="rounded=1;whiteSpace=wrap;html=1;fontSize=16;fillColor=#dae8fc;strokeColor=#6c8ebf;" parent="1" vertex="1">
          <mxGeometry x="1520" y="560" width="360" height="80" as="geometry" />
        </mxCell>
        <mxCell id="TOSCLhitm1Dqb9ZpTsh4-31" style="edgeStyle=orthogonalEdgeStyle;rounded=0;orthogonalLoop=1;jettySize=auto;html=1;strokeWidth=3;" parent="1" source="TOSCLhitm1Dqb9ZpTsh4-32" target="TOSCLhitm1Dqb9ZpTsh4-34" edge="1">
          <mxGeometry relative="1" as="geometry" />
        </mxCell>
        <mxCell id="TOSCLhitm1Dqb9ZpTsh4-32" value="External DATA" style="rounded=1;whiteSpace=wrap;html=1;fillColor=#dae8fc;strokeColor=#6c8ebf;horizontal=1;verticalAlign=middle;" parent="1" vertex="1">
          <mxGeometry x="1960" y="690" width="120" height="60" as="geometry" />
        </mxCell>
        <mxCell id="TOSCLhitm1Dqb9ZpTsh4-33" style="edgeStyle=orthogonalEdgeStyle;rounded=0;orthogonalLoop=1;jettySize=auto;html=1;entryX=0.5;entryY=0;entryDx=0;entryDy=0;strokeWidth=3;" parent="1" source="TOSCLhitm1Dqb9ZpTsh4-34" target="TOSCLhitm1Dqb9ZpTsh4-35" edge="1">
          <mxGeometry relative="1" as="geometry" />
        </mxCell>
        <mxCell id="TOSCLhitm1Dqb9ZpTsh4-34" value="Cross-reference 2" style="rounded=1;whiteSpace=wrap;html=1;fontSize=16;fillColor=#dae8fc;strokeColor=#6c8ebf;" parent="1" vertex="1">
          <mxGeometry x="1520" y="680" width="360" height="80" as="geometry" />
        </mxCell>
        <mxCell id="TOSCLhitm1Dqb9ZpTsh4-43" style="edgeStyle=orthogonalEdgeStyle;rounded=0;orthogonalLoop=1;jettySize=auto;html=1;entryX=0;entryY=0.5;entryDx=0;entryDy=0;strokeWidth=3;" parent="1" source="TOSCLhitm1Dqb9ZpTsh4-35" target="TOSCLhitm1Dqb9ZpTsh4-1" edge="1">
          <mxGeometry relative="1" as="geometry">
            <Array as="points">
              <mxPoint x="1470" y="839.9999999999998" />
              <mxPoint x="1470" y="1040" />
            </Array>
          </mxGeometry>
        </mxCell>
        <mxCell id="CRWFsu0d3f3VjsncQ6_p-81" style="edgeStyle=orthogonalEdgeStyle;rounded=0;orthogonalLoop=1;jettySize=auto;html=1;entryX=0.5;entryY=0;entryDx=0;entryDy=0;strokeWidth=3;" edge="1" parent="1" source="TOSCLhitm1Dqb9ZpTsh4-35" target="CRWFsu0d3f3VjsncQ6_p-80">
          <mxGeometry relative="1" as="geometry" />
        </mxCell>
        <mxCell id="CRWFsu0d3f3VjsncQ6_p-82" style="edgeStyle=orthogonalEdgeStyle;rounded=0;orthogonalLoop=1;jettySize=auto;html=1;entryX=0.5;entryY=0;entryDx=0;entryDy=0;strokeWidth=3;" edge="1" parent="1" source="TOSCLhitm1Dqb9ZpTsh4-35" target="CRWFsu0d3f3VjsncQ6_p-79">
          <mxGeometry relative="1" as="geometry" />
        </mxCell>
        <mxCell id="TOSCLhitm1Dqb9ZpTsh4-35" value="Structured databased" style="rounded=1;whiteSpace=wrap;html=1;fontSize=16;fillColor=#dae8fc;strokeColor=#6c8ebf;" parent="1" vertex="1">
          <mxGeometry x="1520" y="800" width="360" height="80" as="geometry" />
        </mxCell>
        <mxCell id="TOSCLhitm1Dqb9ZpTsh4-36" value="DATA Acquisition and database construction phase" style="text;html=1;strokeColor=none;fillColor=none;align=center;verticalAlign=middle;whiteSpace=wrap;rounded=0;strokeWidth=1;fontSize=16;fontStyle=1" parent="1" vertex="1">
          <mxGeometry x="1500" y="81.59" width="400" height="48.41" as="geometry" />
        </mxCell>
        <mxCell id="TOSCLhitm1Dqb9ZpTsh4-44" value="DATA Treatment, clustering and forecasting phase" style="text;html=1;strokeColor=none;fillColor=none;align=center;verticalAlign=middle;whiteSpace=wrap;rounded=0;strokeWidth=1;fontSize=16;fontStyle=1" parent="1" vertex="1">
          <mxGeometry x="1560" y="940" width="400" height="48.41" as="geometry" />
        </mxCell>
        <mxCell id="TOSCLhitm1Dqb9ZpTsh4-46" value="MACRO" style="text;html=1;strokeColor=none;fillColor=none;align=center;verticalAlign=middle;whiteSpace=wrap;rounded=0;fontSize=30;" parent="1" vertex="1">
          <mxGeometry x="1280" y="-80" width="960" height="80" as="geometry" />
        </mxCell>
        <mxCell id="yNCobiBItM3J3ok3ksJP-8" style="edgeStyle=orthogonalEdgeStyle;rounded=0;orthogonalLoop=1;jettySize=auto;html=1;strokeWidth=3;" parent="1" source="yNCobiBItM3J3ok3ksJP-1" target="yNCobiBItM3J3ok3ksJP-4" edge="1">
          <mxGeometry relative="1" as="geometry" />
        </mxCell>
        <mxCell id="yNCobiBItM3J3ok3ksJP-1" value="Quantitative models" style="rounded=1;whiteSpace=wrap;html=1;fillColor=#bac8d3;strokeColor=#23445d;horizontal=1;verticalAlign=middle;fontColor=#FFFFFF;" parent="1" vertex="1">
          <mxGeometry x="2649" y="1520" width="120" height="80" as="geometry" />
        </mxCell>
        <mxCell id="yNCobiBItM3J3ok3ksJP-12" style="edgeStyle=orthogonalEdgeStyle;rounded=0;orthogonalLoop=1;jettySize=auto;html=1;strokeWidth=3;" parent="1" source="yNCobiBItM3J3ok3ksJP-4" target="yNCobiBItM3J3ok3ksJP-5" edge="1">
          <mxGeometry relative="1" as="geometry" />
        </mxCell>
        <mxCell id="yNCobiBItM3J3ok3ksJP-4" value="Causal models" style="rounded=1;whiteSpace=wrap;html=1;fillColor=#bac8d3;strokeColor=#23445d;horizontal=1;verticalAlign=middle;fontColor=#FFFFFF;" parent="1" vertex="1">
          <mxGeometry x="2841" y="1520" width="120" height="80" as="geometry" />
        </mxCell>
        <mxCell id="yNCobiBItM3J3ok3ksJP-5" value="Machine learning models&lt;br&gt;(MLPRegressor or Random forest)" style="rounded=1;whiteSpace=wrap;html=1;fillColor=#bac8d3;strokeColor=#23445d;horizontal=1;verticalAlign=middle;fontColor=#FFFFFF;" parent="1" vertex="1">
          <mxGeometry x="3041" y="1520" width="120" height="80" as="geometry" />
        </mxCell>
        <mxCell id="yNCobiBItM3J3ok3ksJP-10" style="edgeStyle=orthogonalEdgeStyle;rounded=0;orthogonalLoop=1;jettySize=auto;html=1;strokeWidth=3;" parent="1" source="yNCobiBItM3J3ok3ksJP-9" target="yNCobiBItM3J3ok3ksJP-1" edge="1">
          <mxGeometry relative="1" as="geometry" />
        </mxCell>
        <mxCell id="yNCobiBItM3J3ok3ksJP-9" value="Forecasting models" style="rounded=1;whiteSpace=wrap;html=1;fillColor=#bac8d3;strokeColor=#23445d;horizontal=1;verticalAlign=middle;fontColor=#FFFFFF;" parent="1" vertex="1">
          <mxGeometry x="2450" y="1520" width="120" height="80" as="geometry" />
        </mxCell>
        <mxCell id="yNCobiBItM3J3ok3ksJP-15" value="Statistical forecasting models" style="text;html=1;strokeColor=none;fillColor=none;align=center;verticalAlign=middle;whiteSpace=wrap;rounded=0;strokeWidth=1;fontSize=16;fontStyle=1" parent="1" vertex="1">
          <mxGeometry x="2599.5" y="1470" width="400" height="48.41" as="geometry" />
        </mxCell>
        <mxCell id="yNCobiBItM3J3ok3ksJP-20" value="DETAILED" style="text;html=1;strokeColor=none;fillColor=none;align=center;verticalAlign=middle;whiteSpace=wrap;rounded=0;fontSize=30;" parent="1" vertex="1">
          <mxGeometry x="-150.06" y="560" width="960" height="80" as="geometry" />
        </mxCell>
        <mxCell id="M2tUuZAeyHYkhMsrpUYP-4" style="edgeStyle=orthogonalEdgeStyle;rounded=0;orthogonalLoop=1;jettySize=auto;html=1;strokeWidth=3;" parent="1" source="BiN6ibbszM4T-fpxPeLF-1" target="SHqvhm3qR2kiJbIXEdHi-35" edge="1">
          <mxGeometry relative="1" as="geometry" />
        </mxCell>
        <mxCell id="BiN6ibbszM4T-fpxPeLF-1" value="Visualisation of data range and data composition" style="rounded=1;whiteSpace=wrap;html=1;fontSize=16;fillColor=#fff2cc;strokeColor=#d6b656;" parent="1" vertex="1">
          <mxGeometry x="360" y="1320" width="160" height="80" as="geometry" />
        </mxCell>
        <mxCell id="M2tUuZAeyHYkhMsrpUYP-5" style="edgeStyle=orthogonalEdgeStyle;rounded=0;orthogonalLoop=1;jettySize=auto;html=1;entryX=0.5;entryY=0;entryDx=0;entryDy=0;strokeWidth=3;" parent="1" source="BiN6ibbszM4T-fpxPeLF-2" target="SHqvhm3qR2kiJbIXEdHi-38" edge="1">
          <mxGeometry relative="1" as="geometry" />
        </mxCell>
        <mxCell id="BiN6ibbszM4T-fpxPeLF-2" value="Visualisation of data range and data composition" style="rounded=1;whiteSpace=wrap;html=1;fontSize=16;fillColor=#fff2cc;strokeColor=#d6b656;" parent="1" vertex="1">
          <mxGeometry x="600" y="1320" width="160" height="80" as="geometry" />
        </mxCell>
        <mxCell id="BiN6ibbszM4T-fpxPeLF-12" style="edgeStyle=orthogonalEdgeStyle;rounded=0;orthogonalLoop=1;jettySize=auto;html=1;strokeWidth=3;" parent="1" source="BiN6ibbszM4T-fpxPeLF-13" target="BiN6ibbszM4T-fpxPeLF-15" edge="1">
          <mxGeometry relative="1" as="geometry" />
        </mxCell>
        <mxCell id="BiN6ibbszM4T-fpxPeLF-13" value="Clustering model with different cluster composition" style="rounded=1;whiteSpace=wrap;html=1;fontSize=16;fillColor=#f5f5f5;strokeColor=#666666;fontColor=#333333;" parent="1" vertex="1">
          <mxGeometry x="180.04999999999998" y="2760" width="140" height="80" as="geometry" />
        </mxCell>
        <mxCell id="BiN6ibbszM4T-fpxPeLF-14" style="edgeStyle=orthogonalEdgeStyle;rounded=0;orthogonalLoop=1;jettySize=auto;html=1;entryX=0.5;entryY=0;entryDx=0;entryDy=0;strokeWidth=3;" parent="1" source="BiN6ibbszM4T-fpxPeLF-15" target="BiN6ibbszM4T-fpxPeLF-18" edge="1">
          <mxGeometry relative="1" as="geometry" />
        </mxCell>
        <mxCell id="BiN6ibbszM4T-fpxPeLF-15" value="Model evaluation" style="rounded=1;whiteSpace=wrap;html=1;fontSize=16;fillColor=#f5f5f5;strokeColor=#666666;fontColor=#333333;" parent="1" vertex="1">
          <mxGeometry x="180.04999999999998" y="2880" width="140" height="80" as="geometry" />
        </mxCell>
        <mxCell id="BiN6ibbszM4T-fpxPeLF-16" value="No" style="edgeStyle=orthogonalEdgeStyle;rounded=0;orthogonalLoop=1;jettySize=auto;html=1;entryX=0;entryY=0.5;entryDx=0;entryDy=0;strokeWidth=3;" parent="1" source="BiN6ibbszM4T-fpxPeLF-18" target="BiN6ibbszM4T-fpxPeLF-13" edge="1">
          <mxGeometry relative="1" as="geometry">
            <Array as="points">
              <mxPoint x="140.04999999999998" y="3040" />
              <mxPoint x="140.04999999999998" y="2800" />
            </Array>
          </mxGeometry>
        </mxCell>
        <mxCell id="BiN6ibbszM4T-fpxPeLF-17" value="Yes" style="edgeStyle=orthogonalEdgeStyle;rounded=0;orthogonalLoop=1;jettySize=auto;html=1;entryX=0.5;entryY=0;entryDx=0;entryDy=0;strokeWidth=3;" parent="1" source="BiN6ibbszM4T-fpxPeLF-18" target="BiN6ibbszM4T-fpxPeLF-20" edge="1">
          <mxGeometry relative="1" as="geometry" />
        </mxCell>
        <mxCell id="BiN6ibbszM4T-fpxPeLF-18" value="Fit" style="rhombus;whiteSpace=wrap;html=1;" parent="1" vertex="1">
          <mxGeometry x="210.04999999999998" y="3000" width="80" height="80" as="geometry" />
        </mxCell>
        <mxCell id="BiN6ibbszM4T-fpxPeLF-19" style="edgeStyle=orthogonalEdgeStyle;rounded=0;orthogonalLoop=1;jettySize=auto;html=1;entryX=0.5;entryY=0;entryDx=0;entryDy=0;strokeWidth=3;" parent="1" source="BiN6ibbszM4T-fpxPeLF-20" target="BiN6ibbszM4T-fpxPeLF-21" edge="1">
          <mxGeometry relative="1" as="geometry" />
        </mxCell>
        <mxCell id="BiN6ibbszM4T-fpxPeLF-20" value="New database composition based on clusters" style="rounded=1;whiteSpace=wrap;html=1;fontSize=16;fillColor=#b1ddf0;strokeColor=#10739e;" parent="1" vertex="1">
          <mxGeometry x="180.04999999999998" y="3120" width="140" height="80" as="geometry" />
        </mxCell>
        <mxCell id="CRWFsu0d3f3VjsncQ6_p-91" style="edgeStyle=orthogonalEdgeStyle;rounded=0;orthogonalLoop=1;jettySize=auto;html=1;strokeWidth=3;" edge="1" parent="1" source="BiN6ibbszM4T-fpxPeLF-21" target="SHqvhm3qR2kiJbIXEdHi-113">
          <mxGeometry relative="1" as="geometry">
            <Array as="points">
              <mxPoint x="250" y="3370" />
              <mxPoint x="360" y="3370" />
            </Array>
          </mxGeometry>
        </mxCell>
        <mxCell id="BiN6ibbszM4T-fpxPeLF-21" value="Building forecasting models based on clusters" style="rounded=1;whiteSpace=wrap;html=1;fontSize=16;fillColor=#b1ddf0;strokeColor=#10739e;" parent="1" vertex="1">
          <mxGeometry x="180.04999999999998" y="3240" width="140" height="80" as="geometry" />
        </mxCell>
        <mxCell id="BiN6ibbszM4T-fpxPeLF-29" style="edgeStyle=orthogonalEdgeStyle;rounded=0;orthogonalLoop=1;jettySize=auto;html=1;strokeWidth=3;" parent="1" source="BiN6ibbszM4T-fpxPeLF-24" target="bCkLxKvPBURnQj97gKr4-1" edge="1">
          <mxGeometry relative="1" as="geometry" />
        </mxCell>
        <mxCell id="BiN6ibbszM4T-fpxPeLF-24" value="Create moving average feature based on medicine" style="rounded=1;whiteSpace=wrap;html=1;fontSize=16;fillColor=#e1d5e7;strokeColor=#9673a6;" parent="1" vertex="1">
          <mxGeometry x="389.94" y="1840" width="140" height="80" as="geometry" />
        </mxCell>
        <mxCell id="BiN6ibbszM4T-fpxPeLF-31" style="edgeStyle=orthogonalEdgeStyle;rounded=0;orthogonalLoop=1;jettySize=auto;html=1;entryX=0.5;entryY=0;entryDx=0;entryDy=0;strokeWidth=3;" parent="1" source="BiN6ibbszM4T-fpxPeLF-26" target="bCkLxKvPBURnQj97gKr4-4" edge="1">
          <mxGeometry relative="1" as="geometry" />
        </mxCell>
        <mxCell id="BiN6ibbszM4T-fpxPeLF-26" value="Create moving average feature based on medicine" style="rounded=1;whiteSpace=wrap;html=1;fontSize=16;fillColor=#e1d5e7;strokeColor=#9673a6;" parent="1" vertex="1">
          <mxGeometry x="609.94" y="1840" width="140" height="80" as="geometry" />
        </mxCell>
        <mxCell id="CRWFsu0d3f3VjsncQ6_p-78" style="edgeStyle=orthogonalEdgeStyle;rounded=0;orthogonalLoop=1;jettySize=auto;html=1;entryX=0.5;entryY=0;entryDx=0;entryDy=0;strokeWidth=3;" edge="1" parent="1" source="CRWFsu0d3f3VjsncQ6_p-1" target="CRWFsu0d3f3VjsncQ6_p-46">
          <mxGeometry relative="1" as="geometry" />
        </mxCell>
        <mxCell id="CRWFsu0d3f3VjsncQ6_p-1" value="Data inconsistance handling" style="rounded=1;whiteSpace=wrap;html=1;fontSize=16;fillColor=#d5e8d4;strokeColor=#82b366;" vertex="1" parent="1">
          <mxGeometry x="-90.06" y="1090" width="140" height="80" as="geometry" />
        </mxCell>
        <mxCell id="CRWFsu0d3f3VjsncQ6_p-45" style="edgeStyle=orthogonalEdgeStyle;rounded=0;orthogonalLoop=1;jettySize=auto;html=1;strokeWidth=3;" edge="1" parent="1" source="CRWFsu0d3f3VjsncQ6_p-46" target="CRWFsu0d3f3VjsncQ6_p-70">
          <mxGeometry relative="1" as="geometry" />
        </mxCell>
        <mxCell id="CRWFsu0d3f3VjsncQ6_p-46" value="Unified database" style="rounded=1;whiteSpace=wrap;html=1;fontSize=16;fillColor=#d5e8d4;strokeColor=#82b366;" vertex="1" parent="1">
          <mxGeometry x="-90.06" y="1240" width="140" height="80" as="geometry" />
        </mxCell>
        <mxCell id="CRWFsu0d3f3VjsncQ6_p-47" style="edgeStyle=orthogonalEdgeStyle;rounded=0;orthogonalLoop=1;jettySize=auto;html=1;exitX=0.5;exitY=1;exitDx=0;exitDy=0;" edge="1" parent="1" source="CRWFsu0d3f3VjsncQ6_p-46" target="CRWFsu0d3f3VjsncQ6_p-46">
          <mxGeometry relative="1" as="geometry" />
        </mxCell>
        <mxCell id="CRWFsu0d3f3VjsncQ6_p-48" style="edgeStyle=orthogonalEdgeStyle;rounded=0;orthogonalLoop=1;jettySize=auto;html=1;strokeWidth=3;" edge="1" parent="1" source="CRWFsu0d3f3VjsncQ6_p-49" target="CRWFsu0d3f3VjsncQ6_p-53">
          <mxGeometry relative="1" as="geometry" />
        </mxCell>
        <mxCell id="CRWFsu0d3f3VjsncQ6_p-49" value="Removing outliers for each drug" style="rounded=1;whiteSpace=wrap;html=1;fontSize=16;fillColor=#fff2cc;strokeColor=#d6b656;" vertex="1" parent="1">
          <mxGeometry x="-90.06" y="1480" width="140" height="80" as="geometry" />
        </mxCell>
        <mxCell id="CRWFsu0d3f3VjsncQ6_p-50" style="edgeStyle=orthogonalEdgeStyle;rounded=0;orthogonalLoop=1;jettySize=auto;html=1;entryX=0.5;entryY=0;entryDx=0;entryDy=0;strokeWidth=3;" edge="1" parent="1" source="CRWFsu0d3f3VjsncQ6_p-51" target="CRWFsu0d3f3VjsncQ6_p-76">
          <mxGeometry relative="1" as="geometry" />
        </mxCell>
        <mxCell id="CRWFsu0d3f3VjsncQ6_p-51" value="Transform categorical features" style="rounded=1;whiteSpace=wrap;html=1;fontSize=16;fillColor=#fff2cc;strokeColor=#d6b656;" vertex="1" parent="1">
          <mxGeometry x="-90.06" y="2080" width="140" height="80" as="geometry" />
        </mxCell>
        <mxCell id="CRWFsu0d3f3VjsncQ6_p-52" style="edgeStyle=orthogonalEdgeStyle;rounded=0;orthogonalLoop=1;jettySize=auto;html=1;strokeWidth=3;" edge="1" parent="1" source="CRWFsu0d3f3VjsncQ6_p-53" target="CRWFsu0d3f3VjsncQ6_p-72">
          <mxGeometry relative="1" as="geometry" />
        </mxCell>
        <mxCell id="CRWFsu0d3f3VjsncQ6_p-53" value="Define common period for data usage" style="rounded=1;whiteSpace=wrap;html=1;fontSize=16;fillColor=#fff2cc;strokeColor=#d6b656;" vertex="1" parent="1">
          <mxGeometry x="-90.06" y="1600" width="140" height="80" as="geometry" />
        </mxCell>
        <mxCell id="CRWFsu0d3f3VjsncQ6_p-54" style="edgeStyle=orthogonalEdgeStyle;rounded=0;orthogonalLoop=1;jettySize=auto;html=1;strokeWidth=3;" edge="1" parent="1" source="CRWFsu0d3f3VjsncQ6_p-55" target="CRWFsu0d3f3VjsncQ6_p-74">
          <mxGeometry relative="1" as="geometry" />
        </mxCell>
        <mxCell id="CRWFsu0d3f3VjsncQ6_p-55" value="Aggregate data by drug, year and month" style="rounded=1;whiteSpace=wrap;html=1;fontSize=16;fillColor=#fff2cc;strokeColor=#d6b656;" vertex="1" parent="1">
          <mxGeometry x="-90.06" y="1840" width="140" height="80" as="geometry" />
        </mxCell>
        <mxCell id="CRWFsu0d3f3VjsncQ6_p-58" style="edgeStyle=orthogonalEdgeStyle;rounded=0;orthogonalLoop=1;jettySize=auto;html=1;entryX=0.5;entryY=0;entryDx=0;entryDy=0;strokeWidth=3;" edge="1" parent="1" source="CRWFsu0d3f3VjsncQ6_p-59" target="CRWFsu0d3f3VjsncQ6_p-61">
          <mxGeometry relative="1" as="geometry" />
        </mxCell>
        <mxCell id="CRWFsu0d3f3VjsncQ6_p-59" value="Clustering model with different cluster composition" style="rounded=1;whiteSpace=wrap;html=1;fontSize=16;fillColor=#f5f5f5;strokeColor=#666666;fontColor=#333333;" vertex="1" parent="1">
          <mxGeometry x="-90.06" y="2760" width="140" height="80" as="geometry" />
        </mxCell>
        <mxCell id="CRWFsu0d3f3VjsncQ6_p-60" style="edgeStyle=orthogonalEdgeStyle;rounded=0;orthogonalLoop=1;jettySize=auto;html=1;strokeWidth=3;" edge="1" parent="1" source="CRWFsu0d3f3VjsncQ6_p-61" target="CRWFsu0d3f3VjsncQ6_p-63">
          <mxGeometry relative="1" as="geometry" />
        </mxCell>
        <mxCell id="CRWFsu0d3f3VjsncQ6_p-61" value="Model evaluation" style="rounded=1;whiteSpace=wrap;html=1;fontSize=16;fillColor=#f5f5f5;strokeColor=#666666;fontColor=#333333;" vertex="1" parent="1">
          <mxGeometry x="-90.06" y="2880" width="140" height="80" as="geometry" />
        </mxCell>
        <mxCell id="CRWFsu0d3f3VjsncQ6_p-62" value="Yes" style="edgeStyle=orthogonalEdgeStyle;rounded=0;orthogonalLoop=1;jettySize=auto;html=1;strokeWidth=3;" edge="1" parent="1" source="CRWFsu0d3f3VjsncQ6_p-63" target="CRWFsu0d3f3VjsncQ6_p-65">
          <mxGeometry relative="1" as="geometry" />
        </mxCell>
        <mxCell id="CRWFsu0d3f3VjsncQ6_p-77" value="No" style="edgeStyle=orthogonalEdgeStyle;rounded=0;orthogonalLoop=1;jettySize=auto;html=1;entryX=0;entryY=0.5;entryDx=0;entryDy=0;strokeWidth=3;" edge="1" parent="1" source="CRWFsu0d3f3VjsncQ6_p-63" target="CRWFsu0d3f3VjsncQ6_p-59">
          <mxGeometry relative="1" as="geometry">
            <Array as="points">
              <mxPoint x="-150.06" y="3040" />
              <mxPoint x="-150.06" y="2800" />
            </Array>
          </mxGeometry>
        </mxCell>
        <mxCell id="CRWFsu0d3f3VjsncQ6_p-63" value="Fit" style="rhombus;whiteSpace=wrap;html=1;" vertex="1" parent="1">
          <mxGeometry x="-60.06" y="3000" width="80" height="80" as="geometry" />
        </mxCell>
        <mxCell id="CRWFsu0d3f3VjsncQ6_p-64" style="edgeStyle=orthogonalEdgeStyle;rounded=0;orthogonalLoop=1;jettySize=auto;html=1;strokeWidth=3;" edge="1" parent="1" source="CRWFsu0d3f3VjsncQ6_p-65" target="CRWFsu0d3f3VjsncQ6_p-66">
          <mxGeometry relative="1" as="geometry" />
        </mxCell>
        <mxCell id="CRWFsu0d3f3VjsncQ6_p-65" value="New database composition based on clusters" style="rounded=1;whiteSpace=wrap;html=1;fontSize=16;fillColor=#b1ddf0;strokeColor=#10739e;" vertex="1" parent="1">
          <mxGeometry x="-90.06" y="3120" width="140" height="80" as="geometry" />
        </mxCell>
        <mxCell id="CRWFsu0d3f3VjsncQ6_p-92" style="edgeStyle=orthogonalEdgeStyle;rounded=0;orthogonalLoop=1;jettySize=auto;html=1;strokeWidth=3;" edge="1" parent="1" source="CRWFsu0d3f3VjsncQ6_p-66" target="SHqvhm3qR2kiJbIXEdHi-113">
          <mxGeometry relative="1" as="geometry">
            <Array as="points">
              <mxPoint x="-20" y="3370" />
              <mxPoint x="360" y="3370" />
            </Array>
          </mxGeometry>
        </mxCell>
        <mxCell id="CRWFsu0d3f3VjsncQ6_p-66" value="Building forecasting models based on clusters" style="rounded=1;whiteSpace=wrap;html=1;fontSize=16;fillColor=#b1ddf0;strokeColor=#10739e;" vertex="1" parent="1">
          <mxGeometry x="-90.06" y="3240" width="140" height="80" as="geometry" />
        </mxCell>
        <mxCell id="CRWFsu0d3f3VjsncQ6_p-67" style="edgeStyle=orthogonalEdgeStyle;rounded=0;orthogonalLoop=1;jettySize=auto;html=1;strokeWidth=3;" edge="1" parent="1" source="CRWFsu0d3f3VjsncQ6_p-68">
          <mxGeometry relative="1" as="geometry">
            <mxPoint x="-20.059999999999945" y="2640" as="targetPoint" />
          </mxGeometry>
        </mxCell>
        <mxCell id="CRWFsu0d3f3VjsncQ6_p-68" value="Correlation analysis and feature selection" style="rounded=1;whiteSpace=wrap;html=1;fontSize=16;fillColor=#e1d5e7;strokeColor=#9673a6;" vertex="1" parent="1">
          <mxGeometry x="-90.06" y="2320" width="140" height="80" as="geometry" />
        </mxCell>
        <mxCell id="CRWFsu0d3f3VjsncQ6_p-69" style="edgeStyle=orthogonalEdgeStyle;rounded=0;orthogonalLoop=1;jettySize=auto;html=1;entryX=0.5;entryY=0;entryDx=0;entryDy=0;strokeWidth=3;" edge="1" parent="1" source="CRWFsu0d3f3VjsncQ6_p-70" target="CRWFsu0d3f3VjsncQ6_p-49">
          <mxGeometry relative="1" as="geometry" />
        </mxCell>
        <mxCell id="CRWFsu0d3f3VjsncQ6_p-70" value="Visualisation of data range and data composition" style="rounded=1;whiteSpace=wrap;html=1;fontSize=16;fillColor=#fff2cc;strokeColor=#d6b656;" vertex="1" parent="1">
          <mxGeometry x="-90.06" y="1360" width="140" height="80" as="geometry" />
        </mxCell>
        <mxCell id="CRWFsu0d3f3VjsncQ6_p-71" style="edgeStyle=orthogonalEdgeStyle;rounded=0;orthogonalLoop=1;jettySize=auto;html=1;strokeWidth=3;" edge="1" parent="1" source="CRWFsu0d3f3VjsncQ6_p-72" target="CRWFsu0d3f3VjsncQ6_p-55">
          <mxGeometry relative="1" as="geometry" />
        </mxCell>
        <mxCell id="CRWFsu0d3f3VjsncQ6_p-72" value="Fill gaps in data for each medicine and hospital" style="rounded=1;whiteSpace=wrap;html=1;fontSize=16;fillColor=#fff2cc;strokeColor=#d6b656;" vertex="1" parent="1">
          <mxGeometry x="-90.06" y="1720" width="140" height="80" as="geometry" />
        </mxCell>
        <mxCell id="CRWFsu0d3f3VjsncQ6_p-73" style="edgeStyle=orthogonalEdgeStyle;rounded=0;orthogonalLoop=1;jettySize=auto;html=1;entryX=0.5;entryY=0;entryDx=0;entryDy=0;strokeWidth=3;" edge="1" parent="1" source="CRWFsu0d3f3VjsncQ6_p-74" target="CRWFsu0d3f3VjsncQ6_p-51">
          <mxGeometry relative="1" as="geometry" />
        </mxCell>
        <mxCell id="CRWFsu0d3f3VjsncQ6_p-74" value="Visualize period and replace outliers with median" style="rounded=1;whiteSpace=wrap;html=1;fontSize=16;fillColor=#fff2cc;strokeColor=#d6b656;" vertex="1" parent="1">
          <mxGeometry x="-90.06" y="1960" width="140" height="80" as="geometry" />
        </mxCell>
        <mxCell id="CRWFsu0d3f3VjsncQ6_p-75" style="edgeStyle=orthogonalEdgeStyle;rounded=0;orthogonalLoop=1;jettySize=auto;html=1;entryX=0.5;entryY=0;entryDx=0;entryDy=0;strokeWidth=3;" edge="1" parent="1" source="CRWFsu0d3f3VjsncQ6_p-76" target="CRWFsu0d3f3VjsncQ6_p-68">
          <mxGeometry relative="1" as="geometry" />
        </mxCell>
        <mxCell id="CRWFsu0d3f3VjsncQ6_p-76" value="Create moving average feature based on medicine" style="rounded=1;whiteSpace=wrap;html=1;fontSize=16;fillColor=#e1d5e7;strokeColor=#9673a6;" vertex="1" parent="1">
          <mxGeometry x="-90.06" y="2200" width="140" height="80" as="geometry" />
        </mxCell>
        <mxCell id="CRWFsu0d3f3VjsncQ6_p-83" style="edgeStyle=orthogonalEdgeStyle;rounded=0;orthogonalLoop=1;jettySize=auto;html=1;strokeWidth=3;" edge="1" parent="1" source="CRWFsu0d3f3VjsncQ6_p-79" target="CRWFsu0d3f3VjsncQ6_p-1">
          <mxGeometry relative="1" as="geometry" />
        </mxCell>
        <mxCell id="CRWFsu0d3f3VjsncQ6_p-79" value="Time series approach" style="rounded=1;whiteSpace=wrap;html=1;fontSize=16;" vertex="1" parent="1">
          <mxGeometry x="-90.06" y="940" width="140" height="80" as="geometry" />
        </mxCell>
        <mxCell id="CRWFsu0d3f3VjsncQ6_p-84" style="edgeStyle=orthogonalEdgeStyle;rounded=0;orthogonalLoop=1;jettySize=auto;html=1;entryX=0.5;entryY=0;entryDx=0;entryDy=0;strokeWidth=3;" edge="1" parent="1" source="CRWFsu0d3f3VjsncQ6_p-80" target="SHqvhm3qR2kiJbIXEdHi-41">
          <mxGeometry relative="1" as="geometry" />
        </mxCell>
        <mxCell id="CRWFsu0d3f3VjsncQ6_p-80" value="Causal approach" style="rounded=1;whiteSpace=wrap;html=1;fontSize=16;" vertex="1" parent="1">
          <mxGeometry x="480" y="920" width="159.94" height="80" as="geometry" />
        </mxCell>
      </root>
    </mxGraphModel>
  </diagram>
  <diagram id="FHKzKiSD1p5ztjhbD2ni" name="Temporal division">
    <mxGraphModel dx="1195" dy="589" grid="1" gridSize="10" guides="1" tooltips="1" connect="1" arrows="1" fold="1" page="1" pageScale="1" pageWidth="827" pageHeight="1169" math="0" shadow="0">
      <root>
        <mxCell id="0" />
        <mxCell id="1" parent="0" />
        <mxCell id="eJeErl-EDPbxrdXh-wSA-61" value="" style="rounded=1;whiteSpace=wrap;html=1;" vertex="1" parent="1">
          <mxGeometry x="160" y="160" width="1040" height="560" as="geometry" />
        </mxCell>
        <mxCell id="eJeErl-EDPbxrdXh-wSA-2" value="Hospital 1" style="text;html=1;strokeColor=none;fillColor=none;align=center;verticalAlign=middle;whiteSpace=wrap;rounded=0;fontStyle=1;fontSize=14;" vertex="1" parent="1">
          <mxGeometry x="200" y="320" width="80" height="40" as="geometry" />
        </mxCell>
        <mxCell id="eJeErl-EDPbxrdXh-wSA-3" value="" style="endArrow=none;html=1;rounded=0;fillColor=#6a00ff;strokeColor=#3700CC;strokeWidth=2;" edge="1" parent="1">
          <mxGeometry width="50" height="50" relative="1" as="geometry">
            <mxPoint x="380" y="320" as="sourcePoint" />
            <mxPoint x="380" y="360" as="targetPoint" />
          </mxGeometry>
        </mxCell>
        <mxCell id="eJeErl-EDPbxrdXh-wSA-5" value="" style="endArrow=none;dashed=1;html=1;dashPattern=1 3;strokeWidth=2;rounded=0;fillColor=#6a00ff;strokeColor=#3700CC;" edge="1" parent="1">
          <mxGeometry width="50" height="50" relative="1" as="geometry">
            <mxPoint x="380" y="340" as="sourcePoint" />
            <mxPoint x="1161.3793103448277" y="340" as="targetPoint" />
          </mxGeometry>
        </mxCell>
        <mxCell id="eJeErl-EDPbxrdXh-wSA-9" value="" style="endArrow=none;html=1;rounded=0;" edge="1" parent="1">
          <mxGeometry width="50" height="50" relative="1" as="geometry">
            <mxPoint x="319.8" y="240" as="sourcePoint" />
            <mxPoint x="319.8" y="280" as="targetPoint" />
          </mxGeometry>
        </mxCell>
        <mxCell id="eJeErl-EDPbxrdXh-wSA-10" value="" style="endArrow=none;html=1;rounded=0;" edge="1" parent="1">
          <mxGeometry width="50" height="50" relative="1" as="geometry">
            <mxPoint x="440" y="240" as="sourcePoint" />
            <mxPoint x="440" y="280" as="targetPoint" />
          </mxGeometry>
        </mxCell>
        <mxCell id="eJeErl-EDPbxrdXh-wSA-12" value="" style="endArrow=none;html=1;rounded=0;" edge="1" parent="1">
          <mxGeometry width="50" height="50" relative="1" as="geometry">
            <mxPoint x="560" y="240" as="sourcePoint" />
            <mxPoint x="560" y="280" as="targetPoint" />
          </mxGeometry>
        </mxCell>
        <mxCell id="eJeErl-EDPbxrdXh-wSA-13" value="2014" style="text;html=1;strokeColor=none;fillColor=none;align=center;verticalAlign=middle;whiteSpace=wrap;rounded=0;fontStyle=1" vertex="1" parent="1">
          <mxGeometry x="470" y="240" width="60" height="40" as="geometry" />
        </mxCell>
        <mxCell id="eJeErl-EDPbxrdXh-wSA-15" value="" style="endArrow=none;html=1;rounded=0;" edge="1" parent="1">
          <mxGeometry width="50" height="50" relative="1" as="geometry">
            <mxPoint x="680" y="240" as="sourcePoint" />
            <mxPoint x="680" y="280" as="targetPoint" />
          </mxGeometry>
        </mxCell>
        <mxCell id="eJeErl-EDPbxrdXh-wSA-17" value="" style="endArrow=none;html=1;rounded=0;" edge="1" parent="1">
          <mxGeometry width="50" height="50" relative="1" as="geometry">
            <mxPoint x="680" y="240" as="sourcePoint" />
            <mxPoint x="680" y="280" as="targetPoint" />
          </mxGeometry>
        </mxCell>
        <mxCell id="eJeErl-EDPbxrdXh-wSA-18" value="" style="endArrow=none;html=1;rounded=0;" edge="1" parent="1">
          <mxGeometry width="50" height="50" relative="1" as="geometry">
            <mxPoint x="800" y="240" as="sourcePoint" />
            <mxPoint x="800" y="280" as="targetPoint" />
          </mxGeometry>
        </mxCell>
        <mxCell id="eJeErl-EDPbxrdXh-wSA-19" value="2016" style="text;html=1;strokeColor=none;fillColor=none;align=center;verticalAlign=middle;whiteSpace=wrap;rounded=0;fontStyle=1" vertex="1" parent="1">
          <mxGeometry x="710" y="240" width="60" height="40" as="geometry" />
        </mxCell>
        <mxCell id="eJeErl-EDPbxrdXh-wSA-20" value="2013" style="text;html=1;strokeColor=none;fillColor=none;align=center;verticalAlign=middle;whiteSpace=wrap;rounded=0;fontStyle=1" vertex="1" parent="1">
          <mxGeometry x="354" y="240" width="60" height="40" as="geometry" />
        </mxCell>
        <mxCell id="eJeErl-EDPbxrdXh-wSA-21" value="2015" style="text;html=1;strokeColor=none;fillColor=none;align=center;verticalAlign=middle;whiteSpace=wrap;rounded=0;fontStyle=1" vertex="1" parent="1">
          <mxGeometry x="590" y="240" width="60" height="40" as="geometry" />
        </mxCell>
        <mxCell id="eJeErl-EDPbxrdXh-wSA-22" value="" style="endArrow=none;html=1;rounded=0;" edge="1" parent="1">
          <mxGeometry width="50" height="50" relative="1" as="geometry">
            <mxPoint x="800" y="240" as="sourcePoint" />
            <mxPoint x="800" y="280" as="targetPoint" />
          </mxGeometry>
        </mxCell>
        <mxCell id="eJeErl-EDPbxrdXh-wSA-24" value="" style="endArrow=none;html=1;rounded=0;" edge="1" parent="1">
          <mxGeometry width="50" height="50" relative="1" as="geometry">
            <mxPoint x="920" y="240" as="sourcePoint" />
            <mxPoint x="920" y="280" as="targetPoint" />
          </mxGeometry>
        </mxCell>
        <mxCell id="eJeErl-EDPbxrdXh-wSA-25" value="2017" style="text;html=1;strokeColor=none;fillColor=none;align=center;verticalAlign=middle;whiteSpace=wrap;rounded=0;fontStyle=1" vertex="1" parent="1">
          <mxGeometry x="830" y="240" width="60" height="40" as="geometry" />
        </mxCell>
        <mxCell id="eJeErl-EDPbxrdXh-wSA-26" value="" style="endArrow=none;html=1;rounded=0;" edge="1" parent="1">
          <mxGeometry width="50" height="50" relative="1" as="geometry">
            <mxPoint x="920" y="240" as="sourcePoint" />
            <mxPoint x="920" y="280" as="targetPoint" />
          </mxGeometry>
        </mxCell>
        <mxCell id="eJeErl-EDPbxrdXh-wSA-28" value="" style="endArrow=none;html=1;rounded=0;" edge="1" parent="1">
          <mxGeometry width="50" height="50" relative="1" as="geometry">
            <mxPoint x="1040" y="240" as="sourcePoint" />
            <mxPoint x="1040" y="280" as="targetPoint" />
          </mxGeometry>
        </mxCell>
        <mxCell id="eJeErl-EDPbxrdXh-wSA-29" value="2018" style="text;html=1;strokeColor=none;fillColor=none;align=center;verticalAlign=middle;whiteSpace=wrap;rounded=0;fontStyle=1" vertex="1" parent="1">
          <mxGeometry x="950" y="240" width="60" height="40" as="geometry" />
        </mxCell>
        <mxCell id="eJeErl-EDPbxrdXh-wSA-30" value="" style="endArrow=none;html=1;rounded=0;" edge="1" parent="1">
          <mxGeometry width="50" height="50" relative="1" as="geometry">
            <mxPoint x="1040" y="240" as="sourcePoint" />
            <mxPoint x="1040" y="280" as="targetPoint" />
          </mxGeometry>
        </mxCell>
        <mxCell id="eJeErl-EDPbxrdXh-wSA-31" value="" style="endArrow=none;html=1;rounded=0;" edge="1" parent="1">
          <mxGeometry width="50" height="50" relative="1" as="geometry">
            <mxPoint x="1040" y="240" as="sourcePoint" />
            <mxPoint x="1040" y="280" as="targetPoint" />
          </mxGeometry>
        </mxCell>
        <mxCell id="eJeErl-EDPbxrdXh-wSA-32" value="" style="endArrow=none;html=1;rounded=0;" edge="1" parent="1">
          <mxGeometry width="50" height="50" relative="1" as="geometry">
            <mxPoint x="1160" y="240" as="sourcePoint" />
            <mxPoint x="1160" y="280" as="targetPoint" />
          </mxGeometry>
        </mxCell>
        <mxCell id="eJeErl-EDPbxrdXh-wSA-33" value="2019" style="text;html=1;strokeColor=none;fillColor=none;align=center;verticalAlign=middle;whiteSpace=wrap;rounded=0;fontStyle=1" vertex="1" parent="1">
          <mxGeometry x="1070" y="240" width="60" height="40" as="geometry" />
        </mxCell>
        <mxCell id="eJeErl-EDPbxrdXh-wSA-34" value="" style="endArrow=none;html=1;rounded=0;fillColor=#6a00ff;strokeColor=#3700CC;strokeWidth=2;" edge="1" parent="1">
          <mxGeometry width="50" height="50" relative="1" as="geometry">
            <mxPoint x="1160" y="320" as="sourcePoint" />
            <mxPoint x="1160" y="360" as="targetPoint" />
          </mxGeometry>
        </mxCell>
        <mxCell id="eJeErl-EDPbxrdXh-wSA-35" value="" style="endArrow=none;html=1;rounded=0;fillColor=#d80073;strokeColor=#A50040;strokeWidth=2;" edge="1" parent="1">
          <mxGeometry width="50" height="50" relative="1" as="geometry">
            <mxPoint x="1160" y="400" as="sourcePoint" />
            <mxPoint x="1160" y="440" as="targetPoint" />
          </mxGeometry>
        </mxCell>
        <mxCell id="eJeErl-EDPbxrdXh-wSA-36" value="" style="endArrow=none;html=1;rounded=0;fillColor=#008a00;strokeColor=#005700;strokeWidth=2;" edge="1" parent="1">
          <mxGeometry width="50" height="50" relative="1" as="geometry">
            <mxPoint x="1160" y="480" as="sourcePoint" />
            <mxPoint x="1160" y="520" as="targetPoint" />
          </mxGeometry>
        </mxCell>
        <mxCell id="eJeErl-EDPbxrdXh-wSA-37" value="" style="endArrow=none;html=1;rounded=0;fillColor=#a20025;strokeColor=#6F0000;strokeWidth=2;" edge="1" parent="1">
          <mxGeometry width="50" height="50" relative="1" as="geometry">
            <mxPoint x="1070" y="560" as="sourcePoint" />
            <mxPoint x="1070" y="600" as="targetPoint" />
          </mxGeometry>
        </mxCell>
        <mxCell id="eJeErl-EDPbxrdXh-wSA-38" value="" style="endArrow=none;html=1;rounded=0;fillColor=#d80073;strokeColor=#A50040;strokeWidth=2;" edge="1" parent="1">
          <mxGeometry width="50" height="50" relative="1" as="geometry">
            <mxPoint x="830" y="400" as="sourcePoint" />
            <mxPoint x="830" y="440" as="targetPoint" />
          </mxGeometry>
        </mxCell>
        <mxCell id="eJeErl-EDPbxrdXh-wSA-39" value="" style="endArrow=none;html=1;rounded=0;fillColor=#008a00;strokeColor=#005700;strokeWidth=2;" edge="1" parent="1">
          <mxGeometry width="50" height="50" relative="1" as="geometry">
            <mxPoint x="490" y="480" as="sourcePoint" />
            <mxPoint x="490" y="520" as="targetPoint" />
          </mxGeometry>
        </mxCell>
        <mxCell id="eJeErl-EDPbxrdXh-wSA-40" value="" style="endArrow=none;html=1;rounded=0;fillColor=#a20025;strokeColor=#6F0000;strokeWidth=2;" edge="1" parent="1">
          <mxGeometry width="50" height="50" relative="1" as="geometry">
            <mxPoint x="690" y="560" as="sourcePoint" />
            <mxPoint x="690" y="600" as="targetPoint" />
          </mxGeometry>
        </mxCell>
        <mxCell id="eJeErl-EDPbxrdXh-wSA-41" value="" style="endArrow=none;dashed=1;html=1;dashPattern=1 3;strokeWidth=2;rounded=0;fillColor=#d80073;strokeColor=#A50040;" edge="1" parent="1">
          <mxGeometry width="50" height="50" relative="1" as="geometry">
            <mxPoint x="830" y="420" as="sourcePoint" />
            <mxPoint x="1160" y="420" as="targetPoint" />
          </mxGeometry>
        </mxCell>
        <mxCell id="eJeErl-EDPbxrdXh-wSA-42" value="" style="endArrow=none;dashed=1;html=1;dashPattern=1 3;strokeWidth=2;rounded=0;fillColor=#008a00;strokeColor=#005700;" edge="1" parent="1">
          <mxGeometry width="50" height="50" relative="1" as="geometry">
            <mxPoint x="490" y="500" as="sourcePoint" />
            <mxPoint x="1160" y="500" as="targetPoint" />
          </mxGeometry>
        </mxCell>
        <mxCell id="eJeErl-EDPbxrdXh-wSA-43" value="" style="endArrow=none;dashed=1;html=1;dashPattern=1 3;strokeWidth=2;rounded=0;fillColor=#a20025;strokeColor=#6F0000;" edge="1" parent="1">
          <mxGeometry width="50" height="50" relative="1" as="geometry">
            <mxPoint x="690" y="580" as="sourcePoint" />
            <mxPoint x="1070" y="580" as="targetPoint" />
          </mxGeometry>
        </mxCell>
        <mxCell id="eJeErl-EDPbxrdXh-wSA-44" value="Hospital 2" style="text;html=1;strokeColor=none;fillColor=none;align=center;verticalAlign=middle;whiteSpace=wrap;rounded=0;fontStyle=1;fontSize=14;" vertex="1" parent="1">
          <mxGeometry x="200" y="400" width="80" height="40" as="geometry" />
        </mxCell>
        <mxCell id="eJeErl-EDPbxrdXh-wSA-45" value="Hospital 3" style="text;html=1;strokeColor=none;fillColor=none;align=center;verticalAlign=middle;whiteSpace=wrap;rounded=0;fontStyle=1;fontSize=14;" vertex="1" parent="1">
          <mxGeometry x="200" y="480" width="80" height="40" as="geometry" />
        </mxCell>
        <mxCell id="eJeErl-EDPbxrdXh-wSA-46" value="Hospital 4" style="text;html=1;strokeColor=none;fillColor=none;align=center;verticalAlign=middle;whiteSpace=wrap;rounded=0;fontStyle=1;fontSize=14;" vertex="1" parent="1">
          <mxGeometry x="200" y="560" width="80" height="40" as="geometry" />
        </mxCell>
        <mxCell id="eJeErl-EDPbxrdXh-wSA-47" value="Jun/2013" style="text;html=1;strokeColor=none;fillColor=none;align=center;verticalAlign=middle;whiteSpace=wrap;rounded=0;" vertex="1" parent="1">
          <mxGeometry x="360" y="280" width="40" height="40" as="geometry" />
        </mxCell>
        <mxCell id="eJeErl-EDPbxrdXh-wSA-48" value="Mar/2017" style="text;html=1;strokeColor=none;fillColor=none;align=center;verticalAlign=middle;whiteSpace=wrap;rounded=0;" vertex="1" parent="1">
          <mxGeometry x="810" y="360" width="40" height="40" as="geometry" />
        </mxCell>
        <mxCell id="eJeErl-EDPbxrdXh-wSA-49" value="May/2014" style="text;html=1;strokeColor=none;fillColor=none;align=center;verticalAlign=middle;whiteSpace=wrap;rounded=0;" vertex="1" parent="1">
          <mxGeometry x="470" y="440" width="40" height="40" as="geometry" />
        </mxCell>
        <mxCell id="eJeErl-EDPbxrdXh-wSA-50" value="Jan/2016" style="text;html=1;strokeColor=none;fillColor=none;align=center;verticalAlign=middle;whiteSpace=wrap;rounded=0;" vertex="1" parent="1">
          <mxGeometry x="670" y="520" width="40" height="40" as="geometry" />
        </mxCell>
        <mxCell id="eJeErl-EDPbxrdXh-wSA-51" value="Dec/2019" style="text;html=1;strokeColor=none;fillColor=none;align=center;verticalAlign=middle;whiteSpace=wrap;rounded=0;" vertex="1" parent="1">
          <mxGeometry x="1140" y="280" width="40" height="40" as="geometry" />
        </mxCell>
        <mxCell id="eJeErl-EDPbxrdXh-wSA-52" value="Dec/2019" style="text;html=1;strokeColor=none;fillColor=none;align=center;verticalAlign=middle;whiteSpace=wrap;rounded=0;" vertex="1" parent="1">
          <mxGeometry x="1140" y="360" width="40" height="40" as="geometry" />
        </mxCell>
        <mxCell id="eJeErl-EDPbxrdXh-wSA-53" value="Dec/2019" style="text;html=1;strokeColor=none;fillColor=none;align=center;verticalAlign=middle;whiteSpace=wrap;rounded=0;" vertex="1" parent="1">
          <mxGeometry x="1140" y="440" width="40" height="40" as="geometry" />
        </mxCell>
        <mxCell id="eJeErl-EDPbxrdXh-wSA-54" value="Mar/2019" style="text;html=1;strokeColor=none;fillColor=none;align=center;verticalAlign=middle;whiteSpace=wrap;rounded=0;" vertex="1" parent="1">
          <mxGeometry x="1050" y="520" width="40" height="40" as="geometry" />
        </mxCell>
        <mxCell id="eJeErl-EDPbxrdXh-wSA-55" value="Common period" style="text;html=1;strokeColor=none;fillColor=none;align=center;verticalAlign=middle;whiteSpace=wrap;rounded=0;fontStyle=1;fontSize=14;" vertex="1" parent="1">
          <mxGeometry x="200" y="640" width="80" height="40" as="geometry" />
        </mxCell>
        <mxCell id="eJeErl-EDPbxrdXh-wSA-56" value="" style="endArrow=none;html=1;rounded=0;fillColor=#e51400;strokeColor=#B20000;strokeWidth=2;" edge="1" parent="1">
          <mxGeometry width="50" height="50" relative="1" as="geometry">
            <mxPoint x="830" y="640" as="sourcePoint" />
            <mxPoint x="830" y="680" as="targetPoint" />
          </mxGeometry>
        </mxCell>
        <mxCell id="eJeErl-EDPbxrdXh-wSA-57" value="" style="endArrow=none;html=1;rounded=0;fillColor=#e51400;strokeColor=#B20000;strokeWidth=2;" edge="1" parent="1">
          <mxGeometry width="50" height="50" relative="1" as="geometry">
            <mxPoint x="1070" y="640" as="sourcePoint" />
            <mxPoint x="1070" y="680" as="targetPoint" />
          </mxGeometry>
        </mxCell>
        <mxCell id="eJeErl-EDPbxrdXh-wSA-58" value="" style="endArrow=none;dashed=1;html=1;dashPattern=1 3;strokeWidth=2;rounded=0;fillColor=#e51400;strokeColor=#B20000;" edge="1" parent="1">
          <mxGeometry width="50" height="50" relative="1" as="geometry">
            <mxPoint x="830" y="660" as="sourcePoint" />
            <mxPoint x="1070" y="660" as="targetPoint" />
          </mxGeometry>
        </mxCell>
        <mxCell id="eJeErl-EDPbxrdXh-wSA-63" value="" style="endArrow=none;dashed=1;html=1;rounded=0;entryX=0.5;entryY=0;entryDx=0;entryDy=0;dashPattern=1 4;" edge="1" parent="1" target="eJeErl-EDPbxrdXh-wSA-51">
          <mxGeometry width="50" height="50" relative="1" as="geometry">
            <mxPoint x="320" y="280" as="sourcePoint" />
            <mxPoint x="750" y="420" as="targetPoint" />
          </mxGeometry>
        </mxCell>
        <mxCell id="eJeErl-EDPbxrdXh-wSA-64" value="" style="endArrow=none;dashed=1;html=1;rounded=0;dashPattern=1 4;" edge="1" parent="1">
          <mxGeometry width="50" height="50" relative="1" as="geometry">
            <mxPoint x="830" y="440" as="sourcePoint" />
            <mxPoint x="830" y="640" as="targetPoint" />
          </mxGeometry>
        </mxCell>
        <mxCell id="eJeErl-EDPbxrdXh-wSA-65" value="" style="endArrow=none;dashed=1;html=1;rounded=0;dashPattern=1 4;" edge="1" parent="1">
          <mxGeometry width="50" height="50" relative="1" as="geometry">
            <mxPoint x="1070" y="600" as="sourcePoint" />
            <mxPoint x="1070" y="650" as="targetPoint" />
          </mxGeometry>
        </mxCell>
        <mxCell id="eJeErl-EDPbxrdXh-wSA-66" value="Temporal union between data inputs" style="text;html=1;strokeColor=none;fillColor=none;align=center;verticalAlign=middle;whiteSpace=wrap;rounded=0;fontStyle=1;fontSize=16;" vertex="1" parent="1">
          <mxGeometry x="160" y="170" width="1040" height="30" as="geometry" />
        </mxCell>
        <mxCell id="eJeErl-EDPbxrdXh-wSA-67" value="" style="endArrow=none;dashed=1;html=1;rounded=0;exitX=1;exitY=0.5;exitDx=0;exitDy=0;dashPattern=1 4;" edge="1" parent="1" source="eJeErl-EDPbxrdXh-wSA-2">
          <mxGeometry width="50" height="50" relative="1" as="geometry">
            <mxPoint x="670" y="470" as="sourcePoint" />
            <mxPoint x="380" y="340" as="targetPoint" />
          </mxGeometry>
        </mxCell>
        <mxCell id="eJeErl-EDPbxrdXh-wSA-68" value="" style="endArrow=none;dashed=1;html=1;rounded=0;exitX=1;exitY=0.5;exitDx=0;exitDy=0;dashPattern=1 4;" edge="1" parent="1" source="eJeErl-EDPbxrdXh-wSA-44">
          <mxGeometry width="50" height="50" relative="1" as="geometry">
            <mxPoint x="290" y="350" as="sourcePoint" />
            <mxPoint x="830" y="420" as="targetPoint" />
          </mxGeometry>
        </mxCell>
        <mxCell id="eJeErl-EDPbxrdXh-wSA-69" value="" style="endArrow=none;dashed=1;html=1;rounded=0;exitX=1;exitY=0.5;exitDx=0;exitDy=0;dashPattern=1 4;" edge="1" parent="1" source="eJeErl-EDPbxrdXh-wSA-45">
          <mxGeometry width="50" height="50" relative="1" as="geometry">
            <mxPoint x="290" y="430" as="sourcePoint" />
            <mxPoint x="490" y="500" as="targetPoint" />
          </mxGeometry>
        </mxCell>
        <mxCell id="eJeErl-EDPbxrdXh-wSA-70" value="" style="endArrow=none;dashed=1;html=1;rounded=0;exitX=1;exitY=0.5;exitDx=0;exitDy=0;dashPattern=1 4;" edge="1" parent="1" source="eJeErl-EDPbxrdXh-wSA-46">
          <mxGeometry width="50" height="50" relative="1" as="geometry">
            <mxPoint x="290" y="510" as="sourcePoint" />
            <mxPoint x="690" y="580" as="targetPoint" />
          </mxGeometry>
        </mxCell>
        <mxCell id="eJeErl-EDPbxrdXh-wSA-71" value="" style="endArrow=none;dashed=1;html=1;rounded=0;exitX=1;exitY=0.5;exitDx=0;exitDy=0;dashPattern=1 4;" edge="1" parent="1" source="eJeErl-EDPbxrdXh-wSA-55">
          <mxGeometry width="50" height="50" relative="1" as="geometry">
            <mxPoint x="290" y="590" as="sourcePoint" />
            <mxPoint x="830" y="660" as="targetPoint" />
          </mxGeometry>
        </mxCell>
        <mxCell id="eJeErl-EDPbxrdXh-wSA-72" value="Mar/2017" style="text;html=1;strokeColor=none;fillColor=none;align=center;verticalAlign=middle;whiteSpace=wrap;rounded=0;" vertex="1" parent="1">
          <mxGeometry x="810" y="680" width="40" height="40" as="geometry" />
        </mxCell>
        <mxCell id="eJeErl-EDPbxrdXh-wSA-73" value="Mar/2019" style="text;html=1;strokeColor=none;fillColor=none;align=center;verticalAlign=middle;whiteSpace=wrap;rounded=0;" vertex="1" parent="1">
          <mxGeometry x="1050" y="680" width="40" height="40" as="geometry" />
        </mxCell>
      </root>
    </mxGraphModel>
  </diagram>
</mxfile>
